<mxfile host="www.draw.io" modified="2020-02-02T09:19:40.878Z" agent="Mozilla/5.0 (Macintosh; Intel Mac OS X 10_15_2) AppleWebKit/537.36 (KHTML, like Gecko) Chrome/79.0.3945.130 Safari/537.36" etag="8XyF9cDKSsyk-x6N_sF2" version="12.6.2" type="github">
  <diagram id="STMY978ME-MeC9b9FchS" name="Page-1">
    <mxGraphModel dx="2066" dy="4454" grid="1" gridSize="10" guides="1" tooltips="1" connect="1" arrows="1" fold="1" page="1" pageScale="1" pageWidth="4681" pageHeight="3300" math="0" shadow="0">
      <root>
        <mxCell id="0"/>
        <mxCell id="1" parent="0"/>
        <mxCell id="3THO4AyM1_TK7ZMoMyT6-1" value="0" style="rounded=0;whiteSpace=wrap;html=1;fillColor=#ffe6cc;strokeColor=#d79b00;" vertex="1" parent="1">
          <mxGeometry x="600" y="200" width="40" height="40" as="geometry"/>
        </mxCell>
        <mxCell id="3THO4AyM1_TK7ZMoMyT6-2" value="1" style="rounded=0;whiteSpace=wrap;html=1;fillColor=#ffe6cc;strokeColor=#d79b00;" vertex="1" parent="1">
          <mxGeometry x="640" y="200" width="40" height="40" as="geometry"/>
        </mxCell>
        <mxCell id="3THO4AyM1_TK7ZMoMyT6-3" value="2" style="rounded=0;whiteSpace=wrap;html=1;fillColor=#ffe6cc;strokeColor=#d79b00;" vertex="1" parent="1">
          <mxGeometry x="680" y="200" width="40" height="40" as="geometry"/>
        </mxCell>
        <mxCell id="3THO4AyM1_TK7ZMoMyT6-4" value="3" style="rounded=0;whiteSpace=wrap;html=1;fillColor=#ffe6cc;strokeColor=#d79b00;" vertex="1" parent="1">
          <mxGeometry x="720" y="200" width="40" height="40" as="geometry"/>
        </mxCell>
        <mxCell id="3THO4AyM1_TK7ZMoMyT6-5" value="4" style="rounded=0;whiteSpace=wrap;html=1;fillColor=#ffe6cc;strokeColor=#d79b00;" vertex="1" parent="1">
          <mxGeometry x="760" y="200" width="40" height="40" as="geometry"/>
        </mxCell>
        <mxCell id="3THO4AyM1_TK7ZMoMyT6-6" value="5" style="rounded=0;whiteSpace=wrap;html=1;fillColor=#ffe6cc;strokeColor=#d79b00;" vertex="1" parent="1">
          <mxGeometry x="800" y="200" width="40" height="40" as="geometry"/>
        </mxCell>
        <mxCell id="3THO4AyM1_TK7ZMoMyT6-7" value="6" style="rounded=0;whiteSpace=wrap;html=1;fillColor=#ffe6cc;strokeColor=#d79b00;" vertex="1" parent="1">
          <mxGeometry x="840" y="200" width="40" height="40" as="geometry"/>
        </mxCell>
        <mxCell id="3THO4AyM1_TK7ZMoMyT6-8" value="7" style="rounded=0;whiteSpace=wrap;html=1;fillColor=#ffe6cc;strokeColor=#d79b00;" vertex="1" parent="1">
          <mxGeometry x="880" y="200" width="40" height="40" as="geometry"/>
        </mxCell>
        <mxCell id="3THO4AyM1_TK7ZMoMyT6-9" value="8" style="rounded=0;whiteSpace=wrap;html=1;fillColor=#ffe6cc;strokeColor=#d79b00;" vertex="1" parent="1">
          <mxGeometry x="920" y="200" width="40" height="40" as="geometry"/>
        </mxCell>
        <mxCell id="3THO4AyM1_TK7ZMoMyT6-10" value="9" style="rounded=0;whiteSpace=wrap;html=1;fillColor=#ffe6cc;strokeColor=#d79b00;" vertex="1" parent="1">
          <mxGeometry x="960" y="200" width="40" height="40" as="geometry"/>
        </mxCell>
        <mxCell id="3THO4AyM1_TK7ZMoMyT6-21" value="0" style="rounded=0;whiteSpace=wrap;html=1;fillColor=#ffe6cc;strokeColor=#d79b00;" vertex="1" parent="1">
          <mxGeometry x="600" y="320" width="40" height="40" as="geometry"/>
        </mxCell>
        <mxCell id="3THO4AyM1_TK7ZMoMyT6-22" value="1" style="rounded=0;whiteSpace=wrap;html=1;fillColor=#ffe6cc;strokeColor=#d79b00;" vertex="1" parent="1">
          <mxGeometry x="640" y="320" width="40" height="40" as="geometry"/>
        </mxCell>
        <mxCell id="3THO4AyM1_TK7ZMoMyT6-23" value="2" style="rounded=0;whiteSpace=wrap;html=1;fillColor=#ffe6cc;strokeColor=#d79b00;" vertex="1" parent="1">
          <mxGeometry x="680" y="320" width="40" height="40" as="geometry"/>
        </mxCell>
        <mxCell id="3THO4AyM1_TK7ZMoMyT6-24" value="3" style="rounded=0;whiteSpace=wrap;html=1;fillColor=#ffe6cc;strokeColor=#d79b00;" vertex="1" parent="1">
          <mxGeometry x="720" y="320" width="40" height="40" as="geometry"/>
        </mxCell>
        <mxCell id="3THO4AyM1_TK7ZMoMyT6-25" value="4" style="rounded=0;whiteSpace=wrap;html=1;fillColor=#ffe6cc;strokeColor=#d79b00;" vertex="1" parent="1">
          <mxGeometry x="760" y="320" width="40" height="40" as="geometry"/>
        </mxCell>
        <mxCell id="3THO4AyM1_TK7ZMoMyT6-26" value="5" style="rounded=0;whiteSpace=wrap;html=1;fillColor=#ffe6cc;strokeColor=#d79b00;" vertex="1" parent="1">
          <mxGeometry x="800" y="320" width="40" height="40" as="geometry"/>
        </mxCell>
        <mxCell id="3THO4AyM1_TK7ZMoMyT6-27" value="6" style="rounded=0;whiteSpace=wrap;html=1;fillColor=#ffe6cc;strokeColor=#d79b00;" vertex="1" parent="1">
          <mxGeometry x="840" y="320" width="40" height="40" as="geometry"/>
        </mxCell>
        <mxCell id="3THO4AyM1_TK7ZMoMyT6-28" value="7" style="rounded=0;whiteSpace=wrap;html=1;fillColor=#ffe6cc;strokeColor=#d79b00;" vertex="1" parent="1">
          <mxGeometry x="880" y="320" width="40" height="40" as="geometry"/>
        </mxCell>
        <mxCell id="3THO4AyM1_TK7ZMoMyT6-29" value="8" style="rounded=0;whiteSpace=wrap;html=1;fillColor=#ffe6cc;strokeColor=#d79b00;" vertex="1" parent="1">
          <mxGeometry x="920" y="320" width="40" height="40" as="geometry"/>
        </mxCell>
        <mxCell id="3THO4AyM1_TK7ZMoMyT6-30" value="9" style="rounded=0;whiteSpace=wrap;html=1;fillColor=#ffe6cc;strokeColor=#d79b00;" vertex="1" parent="1">
          <mxGeometry x="960" y="320" width="40" height="40" as="geometry"/>
        </mxCell>
        <mxCell id="3THO4AyM1_TK7ZMoMyT6-31" value="0" style="rounded=0;whiteSpace=wrap;html=1;fillColor=#dae8fc;strokeColor=#6c8ebf;" vertex="1" parent="1">
          <mxGeometry x="1000" y="320" width="40" height="40" as="geometry"/>
        </mxCell>
        <mxCell id="3THO4AyM1_TK7ZMoMyT6-32" value="0" style="rounded=0;whiteSpace=wrap;html=1;fillColor=#dae8fc;strokeColor=#6c8ebf;" vertex="1" parent="1">
          <mxGeometry x="1040" y="320" width="40" height="40" as="geometry"/>
        </mxCell>
        <mxCell id="3THO4AyM1_TK7ZMoMyT6-33" value="0" style="rounded=0;whiteSpace=wrap;html=1;fillColor=#dae8fc;strokeColor=#6c8ebf;" vertex="1" parent="1">
          <mxGeometry x="1080" y="320" width="40" height="40" as="geometry"/>
        </mxCell>
        <mxCell id="3THO4AyM1_TK7ZMoMyT6-34" value="0" style="rounded=0;whiteSpace=wrap;html=1;fillColor=#dae8fc;strokeColor=#6c8ebf;" vertex="1" parent="1">
          <mxGeometry x="1120" y="320" width="40" height="40" as="geometry"/>
        </mxCell>
        <mxCell id="3THO4AyM1_TK7ZMoMyT6-35" value="0" style="rounded=0;whiteSpace=wrap;html=1;fillColor=#dae8fc;strokeColor=#6c8ebf;" vertex="1" parent="1">
          <mxGeometry x="1160" y="320" width="40" height="40" as="geometry"/>
        </mxCell>
        <mxCell id="3THO4AyM1_TK7ZMoMyT6-36" value="" style="endArrow=classic;html=1;entryX=1;entryY=0;entryDx=0;entryDy=0;exitX=0;exitY=1;exitDx=0;exitDy=0;" edge="1" parent="1" source="3THO4AyM1_TK7ZMoMyT6-6" target="3THO4AyM1_TK7ZMoMyT6-25">
          <mxGeometry width="50" height="50" relative="1" as="geometry">
            <mxPoint x="600" y="390" as="sourcePoint"/>
            <mxPoint x="650" y="340" as="targetPoint"/>
          </mxGeometry>
        </mxCell>
        <mxCell id="3THO4AyM1_TK7ZMoMyT6-37" value="0" style="rounded=0;whiteSpace=wrap;html=1;fillColor=#ffe6cc;strokeColor=#d79b00;" vertex="1" parent="1">
          <mxGeometry x="600" y="440" width="40" height="40" as="geometry"/>
        </mxCell>
        <mxCell id="3THO4AyM1_TK7ZMoMyT6-38" value="1" style="rounded=0;whiteSpace=wrap;html=1;fillColor=#ffe6cc;strokeColor=#d79b00;" vertex="1" parent="1">
          <mxGeometry x="640" y="440" width="40" height="40" as="geometry"/>
        </mxCell>
        <mxCell id="3THO4AyM1_TK7ZMoMyT6-39" value="2" style="rounded=0;whiteSpace=wrap;html=1;fillColor=#ffe6cc;strokeColor=#d79b00;" vertex="1" parent="1">
          <mxGeometry x="680" y="440" width="40" height="40" as="geometry"/>
        </mxCell>
        <mxCell id="3THO4AyM1_TK7ZMoMyT6-40" value="3" style="rounded=0;whiteSpace=wrap;html=1;fillColor=#ffe6cc;strokeColor=#d79b00;" vertex="1" parent="1">
          <mxGeometry x="720" y="440" width="40" height="40" as="geometry"/>
        </mxCell>
        <mxCell id="3THO4AyM1_TK7ZMoMyT6-41" value="4" style="rounded=0;whiteSpace=wrap;html=1;fillColor=#ffe6cc;strokeColor=#d79b00;" vertex="1" parent="1">
          <mxGeometry x="760" y="440" width="40" height="40" as="geometry"/>
        </mxCell>
        <mxCell id="3THO4AyM1_TK7ZMoMyT6-42" value="11" style="rounded=0;whiteSpace=wrap;html=1;fillColor=#d5e8d4;strokeColor=#82b366;" vertex="1" parent="1">
          <mxGeometry x="800" y="440" width="40" height="40" as="geometry"/>
        </mxCell>
        <mxCell id="3THO4AyM1_TK7ZMoMyT6-43" value="5" style="rounded=0;whiteSpace=wrap;html=1;fillColor=#ffe6cc;strokeColor=#d79b00;" vertex="1" parent="1">
          <mxGeometry x="840" y="440" width="40" height="40" as="geometry"/>
        </mxCell>
        <mxCell id="3THO4AyM1_TK7ZMoMyT6-44" value="6" style="rounded=0;whiteSpace=wrap;html=1;fillColor=#ffe6cc;strokeColor=#d79b00;" vertex="1" parent="1">
          <mxGeometry x="880" y="440" width="40" height="40" as="geometry"/>
        </mxCell>
        <mxCell id="3THO4AyM1_TK7ZMoMyT6-45" value="7" style="rounded=0;whiteSpace=wrap;html=1;fillColor=#ffe6cc;strokeColor=#d79b00;" vertex="1" parent="1">
          <mxGeometry x="920" y="440" width="40" height="40" as="geometry"/>
        </mxCell>
        <mxCell id="3THO4AyM1_TK7ZMoMyT6-46" value="8" style="rounded=0;whiteSpace=wrap;html=1;fillColor=#ffe6cc;strokeColor=#d79b00;" vertex="1" parent="1">
          <mxGeometry x="960" y="440" width="40" height="40" as="geometry"/>
        </mxCell>
        <mxCell id="3THO4AyM1_TK7ZMoMyT6-47" value="9" style="rounded=0;whiteSpace=wrap;html=1;fillColor=#ffe6cc;strokeColor=#d79b00;" vertex="1" parent="1">
          <mxGeometry x="1000" y="440" width="40" height="40" as="geometry"/>
        </mxCell>
        <mxCell id="3THO4AyM1_TK7ZMoMyT6-48" value="0" style="rounded=0;whiteSpace=wrap;html=1;fillColor=#dae8fc;strokeColor=#6c8ebf;" vertex="1" parent="1">
          <mxGeometry x="1040" y="440" width="40" height="40" as="geometry"/>
        </mxCell>
        <mxCell id="3THO4AyM1_TK7ZMoMyT6-49" value="0" style="rounded=0;whiteSpace=wrap;html=1;fillColor=#dae8fc;strokeColor=#6c8ebf;" vertex="1" parent="1">
          <mxGeometry x="1080" y="440" width="40" height="40" as="geometry"/>
        </mxCell>
        <mxCell id="3THO4AyM1_TK7ZMoMyT6-50" value="0" style="rounded=0;whiteSpace=wrap;html=1;fillColor=#dae8fc;strokeColor=#6c8ebf;" vertex="1" parent="1">
          <mxGeometry x="1120" y="440" width="40" height="40" as="geometry"/>
        </mxCell>
        <mxCell id="3THO4AyM1_TK7ZMoMyT6-51" value="0" style="rounded=0;whiteSpace=wrap;html=1;fillColor=#dae8fc;strokeColor=#6c8ebf;" vertex="1" parent="1">
          <mxGeometry x="1160" y="440" width="40" height="40" as="geometry"/>
        </mxCell>
        <mxCell id="3THO4AyM1_TK7ZMoMyT6-52" value="" style="endArrow=classic;html=1;entryX=1;entryY=0;entryDx=0;entryDy=0;exitX=0;exitY=1;exitDx=0;exitDy=0;" edge="1" parent="1" source="3THO4AyM1_TK7ZMoMyT6-26">
          <mxGeometry width="50" height="50" relative="1" as="geometry">
            <mxPoint x="710" y="390" as="sourcePoint"/>
            <mxPoint x="800" y="440" as="targetPoint"/>
          </mxGeometry>
        </mxCell>
        <mxCell id="3THO4AyM1_TK7ZMoMyT6-54" value="add(5, 11)" style="text;html=1;strokeColor=none;fillColor=none;align=center;verticalAlign=middle;whiteSpace=wrap;rounded=0;" vertex="1" parent="1">
          <mxGeometry x="820" y="391" width="60" height="20" as="geometry"/>
        </mxCell>
        <mxCell id="3THO4AyM1_TK7ZMoMyT6-55" value="0" style="rounded=0;whiteSpace=wrap;html=1;fillColor=#ffe6cc;strokeColor=#d79b00;" vertex="1" parent="1">
          <mxGeometry x="600" y="800" width="40" height="40" as="geometry"/>
        </mxCell>
        <mxCell id="3THO4AyM1_TK7ZMoMyT6-56" value="1" style="rounded=0;whiteSpace=wrap;html=1;fillColor=#ffe6cc;strokeColor=#d79b00;" vertex="1" parent="1">
          <mxGeometry x="640" y="800" width="40" height="40" as="geometry"/>
        </mxCell>
        <mxCell id="3THO4AyM1_TK7ZMoMyT6-57" value="2" style="rounded=0;whiteSpace=wrap;html=1;fillColor=#ffe6cc;strokeColor=#d79b00;" vertex="1" parent="1">
          <mxGeometry x="680" y="800" width="40" height="40" as="geometry"/>
        </mxCell>
        <mxCell id="3THO4AyM1_TK7ZMoMyT6-58" value="3" style="rounded=0;whiteSpace=wrap;html=1;fillColor=#ffe6cc;strokeColor=#d79b00;" vertex="1" parent="1">
          <mxGeometry x="720" y="800" width="40" height="40" as="geometry"/>
        </mxCell>
        <mxCell id="3THO4AyM1_TK7ZMoMyT6-59" value="4" style="rounded=0;whiteSpace=wrap;html=1;fillColor=#ffe6cc;strokeColor=#d79b00;" vertex="1" parent="1">
          <mxGeometry x="760" y="800" width="40" height="40" as="geometry"/>
        </mxCell>
        <mxCell id="3THO4AyM1_TK7ZMoMyT6-60" value="5" style="rounded=0;whiteSpace=wrap;html=1;fillColor=#ffe6cc;strokeColor=#d79b00;" vertex="1" parent="1">
          <mxGeometry x="800" y="800" width="40" height="40" as="geometry"/>
        </mxCell>
        <mxCell id="3THO4AyM1_TK7ZMoMyT6-61" value="6" style="rounded=0;whiteSpace=wrap;html=1;fillColor=#ffe6cc;strokeColor=#d79b00;" vertex="1" parent="1">
          <mxGeometry x="840" y="800" width="40" height="40" as="geometry"/>
        </mxCell>
        <mxCell id="3THO4AyM1_TK7ZMoMyT6-62" value="7" style="rounded=0;whiteSpace=wrap;html=1;fillColor=#ffe6cc;strokeColor=#d79b00;" vertex="1" parent="1">
          <mxGeometry x="880" y="800" width="40" height="40" as="geometry"/>
        </mxCell>
        <mxCell id="3THO4AyM1_TK7ZMoMyT6-63" value="8" style="rounded=0;whiteSpace=wrap;html=1;fillColor=#ffe6cc;strokeColor=#d79b00;" vertex="1" parent="1">
          <mxGeometry x="920" y="800" width="40" height="40" as="geometry"/>
        </mxCell>
        <mxCell id="3THO4AyM1_TK7ZMoMyT6-64" value="9" style="rounded=0;whiteSpace=wrap;html=1;fillColor=#ffe6cc;strokeColor=#d79b00;" vertex="1" parent="1">
          <mxGeometry x="960" y="800" width="40" height="40" as="geometry"/>
        </mxCell>
        <mxCell id="3THO4AyM1_TK7ZMoMyT6-65" value="10" style="rounded=0;whiteSpace=wrap;html=1;fillColor=#f8cecc;strokeColor=#b85450;" vertex="1" parent="1">
          <mxGeometry x="1000" y="800" width="40" height="40" as="geometry"/>
        </mxCell>
        <mxCell id="3THO4AyM1_TK7ZMoMyT6-66" value="0" style="rounded=0;whiteSpace=wrap;html=1;fillColor=#dae8fc;strokeColor=#6c8ebf;" vertex="1" parent="1">
          <mxGeometry x="1040" y="800" width="40" height="40" as="geometry"/>
        </mxCell>
        <mxCell id="3THO4AyM1_TK7ZMoMyT6-67" value="0" style="rounded=0;whiteSpace=wrap;html=1;fillColor=#dae8fc;strokeColor=#6c8ebf;" vertex="1" parent="1">
          <mxGeometry x="1080" y="800" width="40" height="40" as="geometry"/>
        </mxCell>
        <mxCell id="3THO4AyM1_TK7ZMoMyT6-68" value="0" style="rounded=0;whiteSpace=wrap;html=1;fillColor=#dae8fc;strokeColor=#6c8ebf;" vertex="1" parent="1">
          <mxGeometry x="1120" y="800" width="40" height="40" as="geometry"/>
        </mxCell>
        <mxCell id="3THO4AyM1_TK7ZMoMyT6-69" value="0" style="rounded=0;whiteSpace=wrap;html=1;fillColor=#dae8fc;strokeColor=#6c8ebf;" vertex="1" parent="1">
          <mxGeometry x="1160" y="800" width="40" height="40" as="geometry"/>
        </mxCell>
        <mxCell id="3THO4AyM1_TK7ZMoMyT6-71" value="扩容" style="text;html=1;strokeColor=none;fillColor=none;align=center;verticalAlign=middle;whiteSpace=wrap;rounded=0;" vertex="1" parent="1">
          <mxGeometry x="810" y="270" width="60" height="20" as="geometry"/>
        </mxCell>
        <mxCell id="3THO4AyM1_TK7ZMoMyT6-84" value="" style="rounded=0;whiteSpace=wrap;html=1;fillColor=none;strokeColor=#FF0000;" vertex="1" parent="1">
          <mxGeometry x="790" y="310" width="220" height="60" as="geometry"/>
        </mxCell>
        <mxCell id="3THO4AyM1_TK7ZMoMyT6-85" value="" style="rounded=0;whiteSpace=wrap;html=1;fillColor=none;strokeColor=#FF0000;" vertex="1" parent="1">
          <mxGeometry x="830" y="430" width="220" height="60" as="geometry"/>
        </mxCell>
        <mxCell id="3THO4AyM1_TK7ZMoMyT6-86" value="" style="curved=1;endArrow=classic;html=1;entryX=0.5;entryY=0;entryDx=0;entryDy=0;exitX=0.5;exitY=1;exitDx=0;exitDy=0;" edge="1" parent="1" source="3THO4AyM1_TK7ZMoMyT6-84" target="3THO4AyM1_TK7ZMoMyT6-85">
          <mxGeometry width="50" height="50" relative="1" as="geometry">
            <mxPoint x="920" y="370" as="sourcePoint"/>
            <mxPoint x="100" y="770" as="targetPoint"/>
            <Array as="points">
              <mxPoint x="880" y="410"/>
              <mxPoint x="960" y="390"/>
            </Array>
          </mxGeometry>
        </mxCell>
        <mxCell id="3THO4AyM1_TK7ZMoMyT6-87" value="1" style="rounded=0;whiteSpace=wrap;html=1;fillColor=#ffe6cc;strokeColor=#d79b00;" vertex="1" parent="1">
          <mxGeometry x="80" y="320" width="40" height="40" as="geometry"/>
        </mxCell>
        <mxCell id="3THO4AyM1_TK7ZMoMyT6-88" value="0" style="rounded=0;whiteSpace=wrap;html=1;fillColor=#dae8fc;strokeColor=#6c8ebf;" vertex="1" parent="1">
          <mxGeometry x="120" y="320" width="40" height="40" as="geometry"/>
        </mxCell>
        <mxCell id="3THO4AyM1_TK7ZMoMyT6-89" value="0" style="rounded=0;whiteSpace=wrap;html=1;fillColor=#dae8fc;strokeColor=#6c8ebf;" vertex="1" parent="1">
          <mxGeometry x="160" y="320" width="40" height="40" as="geometry"/>
        </mxCell>
        <mxCell id="3THO4AyM1_TK7ZMoMyT6-90" value="0" style="rounded=0;whiteSpace=wrap;html=1;fillColor=#dae8fc;strokeColor=#6c8ebf;" vertex="1" parent="1">
          <mxGeometry x="200" y="320" width="40" height="40" as="geometry"/>
        </mxCell>
        <mxCell id="3THO4AyM1_TK7ZMoMyT6-91" value="0" style="rounded=0;whiteSpace=wrap;html=1;fillColor=#dae8fc;strokeColor=#6c8ebf;" vertex="1" parent="1">
          <mxGeometry x="240" y="320" width="40" height="40" as="geometry"/>
        </mxCell>
        <mxCell id="3THO4AyM1_TK7ZMoMyT6-92" value="0" style="rounded=0;whiteSpace=wrap;html=1;fillColor=#dae8fc;strokeColor=#6c8ebf;" vertex="1" parent="1">
          <mxGeometry x="280" y="320" width="40" height="40" as="geometry"/>
        </mxCell>
        <mxCell id="3THO4AyM1_TK7ZMoMyT6-93" value="0" style="rounded=0;whiteSpace=wrap;html=1;fillColor=#dae8fc;strokeColor=#6c8ebf;" vertex="1" parent="1">
          <mxGeometry x="320" y="320" width="40" height="40" as="geometry"/>
        </mxCell>
        <mxCell id="3THO4AyM1_TK7ZMoMyT6-94" value="0" style="rounded=0;whiteSpace=wrap;html=1;fillColor=#dae8fc;strokeColor=#6c8ebf;" vertex="1" parent="1">
          <mxGeometry x="360" y="320" width="40" height="40" as="geometry"/>
        </mxCell>
        <mxCell id="3THO4AyM1_TK7ZMoMyT6-95" value="0" style="rounded=0;whiteSpace=wrap;html=1;fillColor=#dae8fc;strokeColor=#6c8ebf;" vertex="1" parent="1">
          <mxGeometry x="400" y="320" width="40" height="40" as="geometry"/>
        </mxCell>
        <mxCell id="3THO4AyM1_TK7ZMoMyT6-96" value="0" style="rounded=0;whiteSpace=wrap;html=1;fillColor=#dae8fc;strokeColor=#6c8ebf;" vertex="1" parent="1">
          <mxGeometry x="440" y="320" width="40" height="40" as="geometry"/>
        </mxCell>
        <mxCell id="3THO4AyM1_TK7ZMoMyT6-97" value="0" style="rounded=0;whiteSpace=wrap;html=1;fillColor=#dae8fc;strokeColor=#6c8ebf;" vertex="1" parent="1">
          <mxGeometry x="80" y="200" width="40" height="40" as="geometry"/>
        </mxCell>
        <mxCell id="3THO4AyM1_TK7ZMoMyT6-98" value="0" style="rounded=0;whiteSpace=wrap;html=1;fillColor=#dae8fc;strokeColor=#6c8ebf;" vertex="1" parent="1">
          <mxGeometry x="120" y="200" width="40" height="40" as="geometry"/>
        </mxCell>
        <mxCell id="3THO4AyM1_TK7ZMoMyT6-99" value="0" style="rounded=0;whiteSpace=wrap;html=1;fillColor=#dae8fc;strokeColor=#6c8ebf;" vertex="1" parent="1">
          <mxGeometry x="160" y="200" width="40" height="40" as="geometry"/>
        </mxCell>
        <mxCell id="3THO4AyM1_TK7ZMoMyT6-100" value="0" style="rounded=0;whiteSpace=wrap;html=1;fillColor=#dae8fc;strokeColor=#6c8ebf;" vertex="1" parent="1">
          <mxGeometry x="200" y="200" width="40" height="40" as="geometry"/>
        </mxCell>
        <mxCell id="3THO4AyM1_TK7ZMoMyT6-101" value="0" style="rounded=0;whiteSpace=wrap;html=1;fillColor=#dae8fc;strokeColor=#6c8ebf;" vertex="1" parent="1">
          <mxGeometry x="240" y="200" width="40" height="40" as="geometry"/>
        </mxCell>
        <mxCell id="3THO4AyM1_TK7ZMoMyT6-102" value="0" style="rounded=0;whiteSpace=wrap;html=1;fillColor=#dae8fc;strokeColor=#6c8ebf;" vertex="1" parent="1">
          <mxGeometry x="280" y="200" width="40" height="40" as="geometry"/>
        </mxCell>
        <mxCell id="3THO4AyM1_TK7ZMoMyT6-103" value="0" style="rounded=0;whiteSpace=wrap;html=1;fillColor=#dae8fc;strokeColor=#6c8ebf;" vertex="1" parent="1">
          <mxGeometry x="320" y="200" width="40" height="40" as="geometry"/>
        </mxCell>
        <mxCell id="3THO4AyM1_TK7ZMoMyT6-104" value="0" style="rounded=0;whiteSpace=wrap;html=1;fillColor=#dae8fc;strokeColor=#6c8ebf;" vertex="1" parent="1">
          <mxGeometry x="360" y="200" width="40" height="40" as="geometry"/>
        </mxCell>
        <mxCell id="3THO4AyM1_TK7ZMoMyT6-105" value="0" style="rounded=0;whiteSpace=wrap;html=1;fillColor=#dae8fc;strokeColor=#6c8ebf;" vertex="1" parent="1">
          <mxGeometry x="400" y="200" width="40" height="40" as="geometry"/>
        </mxCell>
        <mxCell id="3THO4AyM1_TK7ZMoMyT6-106" value="0" style="rounded=0;whiteSpace=wrap;html=1;fillColor=#dae8fc;strokeColor=#6c8ebf;" vertex="1" parent="1">
          <mxGeometry x="440" y="200" width="40" height="40" as="geometry"/>
        </mxCell>
        <mxCell id="3THO4AyM1_TK7ZMoMyT6-107" value="" style="endArrow=classic;html=1;entryX=1;entryY=0;entryDx=0;entryDy=0;exitX=0;exitY=1;exitDx=0;exitDy=0;" edge="1" parent="1" source="3THO4AyM1_TK7ZMoMyT6-102">
          <mxGeometry width="50" height="50" relative="1" as="geometry">
            <mxPoint x="280" y="280" as="sourcePoint"/>
            <mxPoint x="280" y="320" as="targetPoint"/>
          </mxGeometry>
        </mxCell>
        <mxCell id="3THO4AyM1_TK7ZMoMyT6-108" value="list.add(1)" style="text;html=1;strokeColor=none;fillColor=none;align=center;verticalAlign=middle;whiteSpace=wrap;rounded=0;" vertex="1" parent="1">
          <mxGeometry x="290" y="270" width="70" height="20" as="geometry"/>
        </mxCell>
        <mxCell id="3THO4AyM1_TK7ZMoMyT6-119" value="" style="shape=curlyBracket;whiteSpace=wrap;html=1;rounded=1;strokeColor=#FF0000;fillColor=none;size=1;rotation=-90;" vertex="1" parent="1">
          <mxGeometry x="270" y="180" width="20" height="400" as="geometry"/>
        </mxCell>
        <mxCell id="3THO4AyM1_TK7ZMoMyT6-120" value="" style="endArrow=none;dashed=1;html=1;entryX=0;entryY=1;entryDx=0;entryDy=0;" edge="1" parent="1" target="3THO4AyM1_TK7ZMoMyT6-87">
          <mxGeometry width="50" height="50" relative="1" as="geometry">
            <mxPoint x="80" y="370" as="sourcePoint"/>
            <mxPoint x="100" y="770" as="targetPoint"/>
          </mxGeometry>
        </mxCell>
        <mxCell id="3THO4AyM1_TK7ZMoMyT6-121" value="" style="endArrow=none;dashed=1;html=1;entryX=0;entryY=1;entryDx=0;entryDy=0;" edge="1" parent="1">
          <mxGeometry width="50" height="50" relative="1" as="geometry">
            <mxPoint x="480" y="370" as="sourcePoint"/>
            <mxPoint x="480.0000000000002" y="360" as="targetPoint"/>
          </mxGeometry>
        </mxCell>
        <mxCell id="3THO4AyM1_TK7ZMoMyT6-122" value="elementData" style="text;html=1;align=center;verticalAlign=middle;resizable=0;points=[];autosize=1;" vertex="1" parent="1">
          <mxGeometry x="246" y="391" width="80" height="20" as="geometry"/>
        </mxCell>
        <mxCell id="3THO4AyM1_TK7ZMoMyT6-123" value="1" style="rounded=0;whiteSpace=wrap;html=1;fillColor=#ffe6cc;strokeColor=#d79b00;" vertex="1" parent="1">
          <mxGeometry x="79.17" y="560" width="40" height="40" as="geometry"/>
        </mxCell>
        <mxCell id="3THO4AyM1_TK7ZMoMyT6-124" value="0" style="rounded=0;whiteSpace=wrap;html=1;fillColor=#dae8fc;strokeColor=#6c8ebf;" vertex="1" parent="1">
          <mxGeometry x="119.17" y="560" width="40" height="40" as="geometry"/>
        </mxCell>
        <mxCell id="3THO4AyM1_TK7ZMoMyT6-125" value="0" style="rounded=0;whiteSpace=wrap;html=1;fillColor=#dae8fc;strokeColor=#6c8ebf;" vertex="1" parent="1">
          <mxGeometry x="159.17" y="560" width="40" height="40" as="geometry"/>
        </mxCell>
        <mxCell id="3THO4AyM1_TK7ZMoMyT6-126" value="0" style="rounded=0;whiteSpace=wrap;html=1;fillColor=#dae8fc;strokeColor=#6c8ebf;" vertex="1" parent="1">
          <mxGeometry x="199.17" y="560" width="40" height="40" as="geometry"/>
        </mxCell>
        <mxCell id="3THO4AyM1_TK7ZMoMyT6-127" value="0" style="rounded=0;whiteSpace=wrap;html=1;fillColor=#dae8fc;strokeColor=#6c8ebf;" vertex="1" parent="1">
          <mxGeometry x="239.17" y="560" width="40" height="40" as="geometry"/>
        </mxCell>
        <mxCell id="3THO4AyM1_TK7ZMoMyT6-128" value="0" style="rounded=0;whiteSpace=wrap;html=1;fillColor=#dae8fc;strokeColor=#6c8ebf;" vertex="1" parent="1">
          <mxGeometry x="279.17" y="560" width="40" height="40" as="geometry"/>
        </mxCell>
        <mxCell id="3THO4AyM1_TK7ZMoMyT6-129" value="0" style="rounded=0;whiteSpace=wrap;html=1;fillColor=#dae8fc;strokeColor=#6c8ebf;" vertex="1" parent="1">
          <mxGeometry x="319.17" y="560" width="40" height="40" as="geometry"/>
        </mxCell>
        <mxCell id="3THO4AyM1_TK7ZMoMyT6-130" value="0" style="rounded=0;whiteSpace=wrap;html=1;fillColor=#dae8fc;strokeColor=#6c8ebf;" vertex="1" parent="1">
          <mxGeometry x="359.17" y="560" width="40" height="40" as="geometry"/>
        </mxCell>
        <mxCell id="3THO4AyM1_TK7ZMoMyT6-131" value="0" style="rounded=0;whiteSpace=wrap;html=1;fillColor=#dae8fc;strokeColor=#6c8ebf;" vertex="1" parent="1">
          <mxGeometry x="399.17" y="560" width="40" height="40" as="geometry"/>
        </mxCell>
        <mxCell id="3THO4AyM1_TK7ZMoMyT6-132" value="0" style="rounded=0;whiteSpace=wrap;html=1;fillColor=#dae8fc;strokeColor=#6c8ebf;" vertex="1" parent="1">
          <mxGeometry x="439.17" y="560" width="40" height="40" as="geometry"/>
        </mxCell>
        <mxCell id="3THO4AyM1_TK7ZMoMyT6-133" value="" style="shape=curlyBracket;whiteSpace=wrap;html=1;rounded=1;strokeColor=#FF0000;fillColor=none;size=1;rotation=-90;" vertex="1" parent="1">
          <mxGeometry x="269.17" y="420" width="20" height="400" as="geometry"/>
        </mxCell>
        <mxCell id="3THO4AyM1_TK7ZMoMyT6-134" value="" style="endArrow=none;dashed=1;html=1;entryX=0;entryY=1;entryDx=0;entryDy=0;" edge="1" parent="1" target="3THO4AyM1_TK7ZMoMyT6-123">
          <mxGeometry width="50" height="50" relative="1" as="geometry">
            <mxPoint x="79.17000000000023" y="610" as="sourcePoint"/>
            <mxPoint x="99.17" y="1010" as="targetPoint"/>
          </mxGeometry>
        </mxCell>
        <mxCell id="3THO4AyM1_TK7ZMoMyT6-135" value="" style="endArrow=none;dashed=1;html=1;entryX=0;entryY=1;entryDx=0;entryDy=0;" edge="1" parent="1">
          <mxGeometry width="50" height="50" relative="1" as="geometry">
            <mxPoint x="479.17" y="610" as="sourcePoint"/>
            <mxPoint x="479.17" y="600" as="targetPoint"/>
          </mxGeometry>
        </mxCell>
        <mxCell id="3THO4AyM1_TK7ZMoMyT6-136" value="elementData" style="text;html=1;align=center;verticalAlign=middle;resizable=0;points=[];autosize=1;" vertex="1" parent="1">
          <mxGeometry x="245.17" y="631" width="80" height="20" as="geometry"/>
        </mxCell>
        <mxCell id="3THO4AyM1_TK7ZMoMyT6-137" value="" style="shape=curlyBracket;whiteSpace=wrap;html=1;rounded=1;strokeColor=#FF0000;fillColor=none;size=1;rotation=90;" vertex="1" parent="1">
          <mxGeometry x="90" y="520" width="20" height="40" as="geometry"/>
        </mxCell>
        <mxCell id="3THO4AyM1_TK7ZMoMyT6-138" value="" style="endArrow=none;dashed=1;html=1;" edge="1" parent="1">
          <mxGeometry width="50" height="50" relative="1" as="geometry">
            <mxPoint x="80" y="560" as="sourcePoint"/>
            <mxPoint x="80" y="550" as="targetPoint"/>
            <Array as="points">
              <mxPoint x="80" y="550"/>
            </Array>
          </mxGeometry>
        </mxCell>
        <mxCell id="3THO4AyM1_TK7ZMoMyT6-139" value="" style="endArrow=none;dashed=1;html=1;" edge="1" parent="1">
          <mxGeometry width="50" height="50" relative="1" as="geometry">
            <mxPoint x="119.00000000000023" y="560" as="sourcePoint"/>
            <mxPoint x="119.00000000000023" y="550" as="targetPoint"/>
            <Array as="points">
              <mxPoint x="119" y="550"/>
            </Array>
          </mxGeometry>
        </mxCell>
        <mxCell id="3THO4AyM1_TK7ZMoMyT6-140" value="size" style="text;html=1;align=center;verticalAlign=middle;resizable=0;points=[];autosize=1;" vertex="1" parent="1">
          <mxGeometry x="79.17" y="510" width="40" height="20" as="geometry"/>
        </mxCell>
        <mxCell id="3THO4AyM1_TK7ZMoMyT6-141" value="0" style="rounded=0;whiteSpace=wrap;html=1;fillColor=#ffe6cc;strokeColor=#d79b00;" vertex="1" parent="1">
          <mxGeometry x="600" y="560" width="40" height="40" as="geometry"/>
        </mxCell>
        <mxCell id="3THO4AyM1_TK7ZMoMyT6-142" value="1" style="rounded=0;whiteSpace=wrap;html=1;fillColor=#ffe6cc;strokeColor=#d79b00;" vertex="1" parent="1">
          <mxGeometry x="640" y="560" width="40" height="40" as="geometry"/>
        </mxCell>
        <mxCell id="3THO4AyM1_TK7ZMoMyT6-143" value="2" style="rounded=0;whiteSpace=wrap;html=1;fillColor=#ffe6cc;strokeColor=#d79b00;" vertex="1" parent="1">
          <mxGeometry x="680" y="560" width="40" height="40" as="geometry"/>
        </mxCell>
        <mxCell id="3THO4AyM1_TK7ZMoMyT6-144" value="3" style="rounded=0;whiteSpace=wrap;html=1;fillColor=#ffe6cc;strokeColor=#d79b00;" vertex="1" parent="1">
          <mxGeometry x="720" y="560" width="40" height="40" as="geometry"/>
        </mxCell>
        <mxCell id="3THO4AyM1_TK7ZMoMyT6-145" value="4" style="rounded=0;whiteSpace=wrap;html=1;fillColor=#ffe6cc;strokeColor=#d79b00;" vertex="1" parent="1">
          <mxGeometry x="760" y="560" width="40" height="40" as="geometry"/>
        </mxCell>
        <mxCell id="3THO4AyM1_TK7ZMoMyT6-146" value="5" style="rounded=0;whiteSpace=wrap;html=1;fillColor=#ffe6cc;strokeColor=#d79b00;" vertex="1" parent="1">
          <mxGeometry x="800" y="560" width="40" height="40" as="geometry"/>
        </mxCell>
        <mxCell id="3THO4AyM1_TK7ZMoMyT6-147" value="6" style="rounded=0;whiteSpace=wrap;html=1;fillColor=#ffe6cc;strokeColor=#d79b00;" vertex="1" parent="1">
          <mxGeometry x="840" y="560" width="40" height="40" as="geometry"/>
        </mxCell>
        <mxCell id="3THO4AyM1_TK7ZMoMyT6-148" value="7" style="rounded=0;whiteSpace=wrap;html=1;fillColor=#ffe6cc;strokeColor=#d79b00;" vertex="1" parent="1">
          <mxGeometry x="880" y="560" width="40" height="40" as="geometry"/>
        </mxCell>
        <mxCell id="3THO4AyM1_TK7ZMoMyT6-149" value="8" style="rounded=0;whiteSpace=wrap;html=1;fillColor=#ffe6cc;strokeColor=#d79b00;" vertex="1" parent="1">
          <mxGeometry x="920" y="560" width="40" height="40" as="geometry"/>
        </mxCell>
        <mxCell id="3THO4AyM1_TK7ZMoMyT6-150" value="9" style="rounded=0;whiteSpace=wrap;html=1;fillColor=#ffe6cc;strokeColor=#d79b00;" vertex="1" parent="1">
          <mxGeometry x="960" y="560" width="40" height="40" as="geometry"/>
        </mxCell>
        <mxCell id="3THO4AyM1_TK7ZMoMyT6-151" value="0" style="rounded=0;whiteSpace=wrap;html=1;fillColor=#ffe6cc;strokeColor=#d79b00;" vertex="1" parent="1">
          <mxGeometry x="600" y="680" width="40" height="40" as="geometry"/>
        </mxCell>
        <mxCell id="3THO4AyM1_TK7ZMoMyT6-152" value="1" style="rounded=0;whiteSpace=wrap;html=1;fillColor=#ffe6cc;strokeColor=#d79b00;" vertex="1" parent="1">
          <mxGeometry x="640" y="680" width="40" height="40" as="geometry"/>
        </mxCell>
        <mxCell id="3THO4AyM1_TK7ZMoMyT6-153" value="2" style="rounded=0;whiteSpace=wrap;html=1;fillColor=#ffe6cc;strokeColor=#d79b00;" vertex="1" parent="1">
          <mxGeometry x="680" y="680" width="40" height="40" as="geometry"/>
        </mxCell>
        <mxCell id="3THO4AyM1_TK7ZMoMyT6-154" value="3" style="rounded=0;whiteSpace=wrap;html=1;fillColor=#ffe6cc;strokeColor=#d79b00;" vertex="1" parent="1">
          <mxGeometry x="720" y="680" width="40" height="40" as="geometry"/>
        </mxCell>
        <mxCell id="3THO4AyM1_TK7ZMoMyT6-155" value="4" style="rounded=0;whiteSpace=wrap;html=1;fillColor=#ffe6cc;strokeColor=#d79b00;" vertex="1" parent="1">
          <mxGeometry x="760" y="680" width="40" height="40" as="geometry"/>
        </mxCell>
        <mxCell id="3THO4AyM1_TK7ZMoMyT6-156" value="5" style="rounded=0;whiteSpace=wrap;html=1;fillColor=#ffe6cc;strokeColor=#d79b00;" vertex="1" parent="1">
          <mxGeometry x="800" y="680" width="40" height="40" as="geometry"/>
        </mxCell>
        <mxCell id="3THO4AyM1_TK7ZMoMyT6-157" value="6" style="rounded=0;whiteSpace=wrap;html=1;fillColor=#ffe6cc;strokeColor=#d79b00;" vertex="1" parent="1">
          <mxGeometry x="840" y="680" width="40" height="40" as="geometry"/>
        </mxCell>
        <mxCell id="3THO4AyM1_TK7ZMoMyT6-158" value="7" style="rounded=0;whiteSpace=wrap;html=1;fillColor=#ffe6cc;strokeColor=#d79b00;" vertex="1" parent="1">
          <mxGeometry x="880" y="680" width="40" height="40" as="geometry"/>
        </mxCell>
        <mxCell id="3THO4AyM1_TK7ZMoMyT6-159" value="8" style="rounded=0;whiteSpace=wrap;html=1;fillColor=#ffe6cc;strokeColor=#d79b00;" vertex="1" parent="1">
          <mxGeometry x="920" y="680" width="40" height="40" as="geometry"/>
        </mxCell>
        <mxCell id="3THO4AyM1_TK7ZMoMyT6-160" value="9" style="rounded=0;whiteSpace=wrap;html=1;fillColor=#ffe6cc;strokeColor=#d79b00;" vertex="1" parent="1">
          <mxGeometry x="960" y="680" width="40" height="40" as="geometry"/>
        </mxCell>
        <mxCell id="3THO4AyM1_TK7ZMoMyT6-161" value="0" style="rounded=0;whiteSpace=wrap;html=1;fillColor=#dae8fc;strokeColor=#6c8ebf;" vertex="1" parent="1">
          <mxGeometry x="1000" y="680" width="40" height="40" as="geometry"/>
        </mxCell>
        <mxCell id="3THO4AyM1_TK7ZMoMyT6-162" value="0" style="rounded=0;whiteSpace=wrap;html=1;fillColor=#dae8fc;strokeColor=#6c8ebf;" vertex="1" parent="1">
          <mxGeometry x="1040" y="680" width="40" height="40" as="geometry"/>
        </mxCell>
        <mxCell id="3THO4AyM1_TK7ZMoMyT6-163" value="0" style="rounded=0;whiteSpace=wrap;html=1;fillColor=#dae8fc;strokeColor=#6c8ebf;" vertex="1" parent="1">
          <mxGeometry x="1080" y="680" width="40" height="40" as="geometry"/>
        </mxCell>
        <mxCell id="3THO4AyM1_TK7ZMoMyT6-164" value="0" style="rounded=0;whiteSpace=wrap;html=1;fillColor=#dae8fc;strokeColor=#6c8ebf;" vertex="1" parent="1">
          <mxGeometry x="1120" y="680" width="40" height="40" as="geometry"/>
        </mxCell>
        <mxCell id="3THO4AyM1_TK7ZMoMyT6-165" value="0" style="rounded=0;whiteSpace=wrap;html=1;fillColor=#dae8fc;strokeColor=#6c8ebf;" vertex="1" parent="1">
          <mxGeometry x="1160" y="680" width="40" height="40" as="geometry"/>
        </mxCell>
        <mxCell id="3THO4AyM1_TK7ZMoMyT6-166" value="" style="endArrow=classic;html=1;entryX=1;entryY=0;entryDx=0;entryDy=0;exitX=0;exitY=1;exitDx=0;exitDy=0;" edge="1" parent="1" source="3THO4AyM1_TK7ZMoMyT6-146" target="3THO4AyM1_TK7ZMoMyT6-155">
          <mxGeometry width="50" height="50" relative="1" as="geometry">
            <mxPoint x="600" y="750" as="sourcePoint"/>
            <mxPoint x="650" y="700" as="targetPoint"/>
          </mxGeometry>
        </mxCell>
        <mxCell id="3THO4AyM1_TK7ZMoMyT6-167" value="扩容" style="text;html=1;strokeColor=none;fillColor=none;align=center;verticalAlign=middle;whiteSpace=wrap;rounded=0;" vertex="1" parent="1">
          <mxGeometry x="810" y="630" width="60" height="20" as="geometry"/>
        </mxCell>
        <mxCell id="3THO4AyM1_TK7ZMoMyT6-169" value="" style="endArrow=classic;html=1;entryX=0;entryY=0;entryDx=0;entryDy=0;exitX=0;exitY=1;exitDx=0;exitDy=0;" edge="1" parent="1" source="3THO4AyM1_TK7ZMoMyT6-156" target="3THO4AyM1_TK7ZMoMyT6-60">
          <mxGeometry width="50" height="50" relative="1" as="geometry">
            <mxPoint x="810" y="610" as="sourcePoint"/>
            <mxPoint x="810" y="690" as="targetPoint"/>
          </mxGeometry>
        </mxCell>
        <mxCell id="3THO4AyM1_TK7ZMoMyT6-170" value="add(10)" style="text;html=1;strokeColor=none;fillColor=none;align=center;verticalAlign=middle;whiteSpace=wrap;rounded=0;" vertex="1" parent="1">
          <mxGeometry x="830" y="750" width="60" height="20" as="geometry"/>
        </mxCell>
        <mxCell id="3THO4AyM1_TK7ZMoMyT6-171" value="0" style="rounded=0;whiteSpace=wrap;html=1;fillColor=#ffe6cc;strokeColor=#d79b00;" vertex="1" parent="1">
          <mxGeometry x="2000" y="80" width="40" height="40" as="geometry"/>
        </mxCell>
        <mxCell id="3THO4AyM1_TK7ZMoMyT6-172" value="1" style="rounded=0;whiteSpace=wrap;html=1;fillColor=#ffe6cc;strokeColor=#d79b00;" vertex="1" parent="1">
          <mxGeometry x="2040" y="80" width="40" height="40" as="geometry"/>
        </mxCell>
        <mxCell id="3THO4AyM1_TK7ZMoMyT6-173" value="2" style="rounded=0;whiteSpace=wrap;html=1;fillColor=#ffe6cc;strokeColor=#d79b00;" vertex="1" parent="1">
          <mxGeometry x="2080" y="80" width="40" height="40" as="geometry"/>
        </mxCell>
        <mxCell id="3THO4AyM1_TK7ZMoMyT6-174" value="3" style="rounded=0;whiteSpace=wrap;html=1;fillColor=#e1d5e7;strokeColor=#9673a6;" vertex="1" parent="1">
          <mxGeometry x="2120" y="80" width="40" height="40" as="geometry"/>
        </mxCell>
        <mxCell id="3THO4AyM1_TK7ZMoMyT6-175" value="4" style="rounded=0;whiteSpace=wrap;html=1;fillColor=#ffe6cc;strokeColor=#d79b00;" vertex="1" parent="1">
          <mxGeometry x="2160" y="80" width="40" height="40" as="geometry"/>
        </mxCell>
        <mxCell id="3THO4AyM1_TK7ZMoMyT6-176" value="5" style="rounded=0;whiteSpace=wrap;html=1;fillColor=#ffe6cc;strokeColor=#d79b00;" vertex="1" parent="1">
          <mxGeometry x="2200" y="80" width="40" height="40" as="geometry"/>
        </mxCell>
        <mxCell id="3THO4AyM1_TK7ZMoMyT6-177" value="6" style="rounded=0;whiteSpace=wrap;html=1;fillColor=#ffe6cc;strokeColor=#d79b00;" vertex="1" parent="1">
          <mxGeometry x="2240" y="80" width="40" height="40" as="geometry"/>
        </mxCell>
        <mxCell id="3THO4AyM1_TK7ZMoMyT6-178" value="7" style="rounded=0;whiteSpace=wrap;html=1;fillColor=#ffe6cc;strokeColor=#d79b00;" vertex="1" parent="1">
          <mxGeometry x="2280" y="80" width="40" height="40" as="geometry"/>
        </mxCell>
        <mxCell id="3THO4AyM1_TK7ZMoMyT6-179" value="8" style="rounded=0;whiteSpace=wrap;html=1;fillColor=#ffe6cc;strokeColor=#d79b00;" vertex="1" parent="1">
          <mxGeometry x="2320" y="80" width="40" height="40" as="geometry"/>
        </mxCell>
        <mxCell id="3THO4AyM1_TK7ZMoMyT6-180" value="9" style="rounded=0;whiteSpace=wrap;html=1;fillColor=#ffe6cc;strokeColor=#d79b00;" vertex="1" parent="1">
          <mxGeometry x="2360" y="80" width="40" height="40" as="geometry"/>
        </mxCell>
        <mxCell id="3THO4AyM1_TK7ZMoMyT6-181" value="10" style="rounded=0;whiteSpace=wrap;html=1;fillColor=#ffe6cc;strokeColor=#d79b00;" vertex="1" parent="1">
          <mxGeometry x="2400" y="80" width="40" height="40" as="geometry"/>
        </mxCell>
        <mxCell id="3THO4AyM1_TK7ZMoMyT6-182" value="0" style="rounded=0;whiteSpace=wrap;html=1;fillColor=#dae8fc;strokeColor=#6c8ebf;" vertex="1" parent="1">
          <mxGeometry x="2440" y="80" width="40" height="40" as="geometry"/>
        </mxCell>
        <mxCell id="3THO4AyM1_TK7ZMoMyT6-183" value="0" style="rounded=0;whiteSpace=wrap;html=1;fillColor=#dae8fc;strokeColor=#6c8ebf;" vertex="1" parent="1">
          <mxGeometry x="2480" y="80" width="40" height="40" as="geometry"/>
        </mxCell>
        <mxCell id="3THO4AyM1_TK7ZMoMyT6-184" value="0" style="rounded=0;whiteSpace=wrap;html=1;fillColor=#dae8fc;strokeColor=#6c8ebf;" vertex="1" parent="1">
          <mxGeometry x="2520" y="80" width="40" height="40" as="geometry"/>
        </mxCell>
        <mxCell id="3THO4AyM1_TK7ZMoMyT6-185" value="0" style="rounded=0;whiteSpace=wrap;html=1;fillColor=#dae8fc;strokeColor=#6c8ebf;" vertex="1" parent="1">
          <mxGeometry x="2560" y="80" width="40" height="40" as="geometry"/>
        </mxCell>
        <mxCell id="3THO4AyM1_TK7ZMoMyT6-186" value="0" style="rounded=0;whiteSpace=wrap;html=1;fillColor=#ffe6cc;strokeColor=#d79b00;" vertex="1" parent="1">
          <mxGeometry x="2000" y="200" width="40" height="40" as="geometry"/>
        </mxCell>
        <mxCell id="3THO4AyM1_TK7ZMoMyT6-187" value="1" style="rounded=0;whiteSpace=wrap;html=1;fillColor=#ffe6cc;strokeColor=#d79b00;" vertex="1" parent="1">
          <mxGeometry x="2040" y="200" width="40" height="40" as="geometry"/>
        </mxCell>
        <mxCell id="3THO4AyM1_TK7ZMoMyT6-188" value="2" style="rounded=0;whiteSpace=wrap;html=1;fillColor=#ffe6cc;strokeColor=#d79b00;" vertex="1" parent="1">
          <mxGeometry x="2080" y="200" width="40" height="40" as="geometry"/>
        </mxCell>
        <mxCell id="3THO4AyM1_TK7ZMoMyT6-190" value="4" style="rounded=0;whiteSpace=wrap;html=1;fillColor=#ffe6cc;strokeColor=#d79b00;" vertex="1" parent="1">
          <mxGeometry x="2120" y="200" width="40" height="40" as="geometry"/>
        </mxCell>
        <mxCell id="3THO4AyM1_TK7ZMoMyT6-191" value="5" style="rounded=0;whiteSpace=wrap;html=1;fillColor=#ffe6cc;strokeColor=#d79b00;" vertex="1" parent="1">
          <mxGeometry x="2160" y="200" width="40" height="40" as="geometry"/>
        </mxCell>
        <mxCell id="3THO4AyM1_TK7ZMoMyT6-192" value="6" style="rounded=0;whiteSpace=wrap;html=1;fillColor=#ffe6cc;strokeColor=#d79b00;" vertex="1" parent="1">
          <mxGeometry x="2200" y="200" width="40" height="40" as="geometry"/>
        </mxCell>
        <mxCell id="3THO4AyM1_TK7ZMoMyT6-193" value="7" style="rounded=0;whiteSpace=wrap;html=1;fillColor=#ffe6cc;strokeColor=#d79b00;" vertex="1" parent="1">
          <mxGeometry x="2240" y="200" width="40" height="40" as="geometry"/>
        </mxCell>
        <mxCell id="3THO4AyM1_TK7ZMoMyT6-194" value="8" style="rounded=0;whiteSpace=wrap;html=1;fillColor=#ffe6cc;strokeColor=#d79b00;" vertex="1" parent="1">
          <mxGeometry x="2280" y="200" width="40" height="40" as="geometry"/>
        </mxCell>
        <mxCell id="3THO4AyM1_TK7ZMoMyT6-195" value="9" style="rounded=0;whiteSpace=wrap;html=1;fillColor=#ffe6cc;strokeColor=#d79b00;" vertex="1" parent="1">
          <mxGeometry x="2320" y="200" width="40" height="40" as="geometry"/>
        </mxCell>
        <mxCell id="3THO4AyM1_TK7ZMoMyT6-196" value="10" style="rounded=0;whiteSpace=wrap;html=1;fillColor=#ffe6cc;strokeColor=#d79b00;" vertex="1" parent="1">
          <mxGeometry x="2360" y="200" width="40" height="40" as="geometry"/>
        </mxCell>
        <mxCell id="3THO4AyM1_TK7ZMoMyT6-197" value="0" style="rounded=0;whiteSpace=wrap;html=1;fillColor=#dae8fc;strokeColor=#6c8ebf;" vertex="1" parent="1">
          <mxGeometry x="2400" y="200" width="40" height="40" as="geometry"/>
        </mxCell>
        <mxCell id="3THO4AyM1_TK7ZMoMyT6-198" value="0" style="rounded=0;whiteSpace=wrap;html=1;fillColor=#dae8fc;strokeColor=#6c8ebf;" vertex="1" parent="1">
          <mxGeometry x="2440" y="200" width="40" height="40" as="geometry"/>
        </mxCell>
        <mxCell id="3THO4AyM1_TK7ZMoMyT6-199" value="0" style="rounded=0;whiteSpace=wrap;html=1;fillColor=#dae8fc;strokeColor=#6c8ebf;" vertex="1" parent="1">
          <mxGeometry x="2480" y="200" width="40" height="40" as="geometry"/>
        </mxCell>
        <mxCell id="3THO4AyM1_TK7ZMoMyT6-200" value="0" style="rounded=0;whiteSpace=wrap;html=1;fillColor=#dae8fc;strokeColor=#6c8ebf;" vertex="1" parent="1">
          <mxGeometry x="2520" y="200" width="40" height="40" as="geometry"/>
        </mxCell>
        <mxCell id="3THO4AyM1_TK7ZMoMyT6-202" value="" style="rounded=0;whiteSpace=wrap;html=1;fillColor=none;strokeColor=#FF0000;" vertex="1" parent="1">
          <mxGeometry x="2150" y="70" width="300" height="60" as="geometry"/>
        </mxCell>
        <mxCell id="3THO4AyM1_TK7ZMoMyT6-203" value="" style="rounded=0;whiteSpace=wrap;html=1;fillColor=none;strokeColor=#FF0000;" vertex="1" parent="1">
          <mxGeometry x="2110" y="190" width="300" height="60" as="geometry"/>
        </mxCell>
        <mxCell id="3THO4AyM1_TK7ZMoMyT6-204" value="" style="curved=1;endArrow=classic;html=1;entryX=0.5;entryY=0;entryDx=0;entryDy=0;exitX=0.5;exitY=1;exitDx=0;exitDy=0;" edge="1" parent="1" source="3THO4AyM1_TK7ZMoMyT6-202" target="3THO4AyM1_TK7ZMoMyT6-203">
          <mxGeometry width="50" height="50" relative="1" as="geometry">
            <mxPoint x="2360" y="130" as="sourcePoint"/>
            <mxPoint x="1540" y="530" as="targetPoint"/>
            <Array as="points">
              <mxPoint x="2240" y="150"/>
              <mxPoint x="2320" y="170"/>
            </Array>
          </mxGeometry>
        </mxCell>
        <mxCell id="3THO4AyM1_TK7ZMoMyT6-206" value="0" style="rounded=0;whiteSpace=wrap;html=1;fillColor=#dae8fc;strokeColor=#6c8ebf;" vertex="1" parent="1">
          <mxGeometry x="2560" y="200" width="40" height="40" as="geometry"/>
        </mxCell>
        <mxCell id="3THO4AyM1_TK7ZMoMyT6-207" value="" style="endArrow=classic;html=1;exitX=0;exitY=1;exitDx=0;exitDy=0;entryX=0;entryY=0.25;entryDx=0;entryDy=0;" edge="1" parent="1" source="3THO4AyM1_TK7ZMoMyT6-173" target="3THO4AyM1_TK7ZMoMyT6-188">
          <mxGeometry width="50" height="50" relative="1" as="geometry">
            <mxPoint x="2140" y="300" as="sourcePoint"/>
            <mxPoint x="2210" y="330" as="targetPoint"/>
          </mxGeometry>
        </mxCell>
        <mxCell id="3THO4AyM1_TK7ZMoMyT6-208" value="list.remove(3)" style="text;html=1;align=center;verticalAlign=middle;resizable=0;points=[];autosize=1;" vertex="1" parent="1">
          <mxGeometry x="2095" y="150" width="90" height="20" as="geometry"/>
        </mxCell>
        <mxCell id="3THO4AyM1_TK7ZMoMyT6-209" value="0" style="rounded=0;whiteSpace=wrap;html=1;fillColor=#ffe6cc;strokeColor=#d79b00;" vertex="1" parent="1">
          <mxGeometry x="600" y="1240" width="40" height="40" as="geometry"/>
        </mxCell>
        <mxCell id="3THO4AyM1_TK7ZMoMyT6-210" value="1" style="rounded=0;whiteSpace=wrap;html=1;fillColor=#ffe6cc;strokeColor=#d79b00;" vertex="1" parent="1">
          <mxGeometry x="640" y="1240" width="40" height="40" as="geometry"/>
        </mxCell>
        <mxCell id="3THO4AyM1_TK7ZMoMyT6-211" value="2" style="rounded=0;whiteSpace=wrap;html=1;fillColor=#ffe6cc;strokeColor=#d79b00;" vertex="1" parent="1">
          <mxGeometry x="680" y="1240" width="40" height="40" as="geometry"/>
        </mxCell>
        <mxCell id="3THO4AyM1_TK7ZMoMyT6-212" value="3" style="rounded=0;whiteSpace=wrap;html=1;fillColor=#ffe6cc;strokeColor=#d79b00;" vertex="1" parent="1">
          <mxGeometry x="720" y="1240" width="40" height="40" as="geometry"/>
        </mxCell>
        <mxCell id="3THO4AyM1_TK7ZMoMyT6-213" value="4" style="rounded=0;whiteSpace=wrap;html=1;fillColor=#ffe6cc;strokeColor=#d79b00;" vertex="1" parent="1">
          <mxGeometry x="760" y="1240" width="40" height="40" as="geometry"/>
        </mxCell>
        <mxCell id="3THO4AyM1_TK7ZMoMyT6-214" value="5" style="rounded=0;whiteSpace=wrap;html=1;fillColor=#ffe6cc;strokeColor=#d79b00;" vertex="1" parent="1">
          <mxGeometry x="800" y="1240" width="40" height="40" as="geometry"/>
        </mxCell>
        <mxCell id="3THO4AyM1_TK7ZMoMyT6-215" value="6" style="rounded=0;whiteSpace=wrap;html=1;fillColor=#ffe6cc;strokeColor=#d79b00;" vertex="1" parent="1">
          <mxGeometry x="840" y="1240" width="40" height="40" as="geometry"/>
        </mxCell>
        <mxCell id="3THO4AyM1_TK7ZMoMyT6-216" value="7" style="rounded=0;whiteSpace=wrap;html=1;fillColor=#ffe6cc;strokeColor=#d79b00;" vertex="1" parent="1">
          <mxGeometry x="880" y="1240" width="40" height="40" as="geometry"/>
        </mxCell>
        <mxCell id="3THO4AyM1_TK7ZMoMyT6-217" value="8" style="rounded=0;whiteSpace=wrap;html=1;fillColor=#ffe6cc;strokeColor=#d79b00;" vertex="1" parent="1">
          <mxGeometry x="920" y="1240" width="40" height="40" as="geometry"/>
        </mxCell>
        <mxCell id="3THO4AyM1_TK7ZMoMyT6-218" value="9" style="rounded=0;whiteSpace=wrap;html=1;fillColor=#ffe6cc;strokeColor=#d79b00;" vertex="1" parent="1">
          <mxGeometry x="960" y="1240" width="40" height="40" as="geometry"/>
        </mxCell>
        <mxCell id="3THO4AyM1_TK7ZMoMyT6-219" value="10" style="rounded=0;whiteSpace=wrap;html=1;fillColor=#f8cecc;strokeColor=#b85450;" vertex="1" parent="1">
          <mxGeometry x="1000" y="1240" width="40" height="40" as="geometry"/>
        </mxCell>
        <mxCell id="3THO4AyM1_TK7ZMoMyT6-220" value="11" style="rounded=0;whiteSpace=wrap;html=1;fillColor=#f8cecc;strokeColor=#b85450;" vertex="1" parent="1">
          <mxGeometry x="1040" y="1240" width="40" height="40" as="geometry"/>
        </mxCell>
        <mxCell id="3THO4AyM1_TK7ZMoMyT6-221" value="12" style="rounded=0;whiteSpace=wrap;html=1;fillColor=#f8cecc;strokeColor=#b85450;" vertex="1" parent="1">
          <mxGeometry x="1080" y="1240" width="40" height="40" as="geometry"/>
        </mxCell>
        <mxCell id="3THO4AyM1_TK7ZMoMyT6-222" value="13" style="rounded=0;whiteSpace=wrap;html=1;fillColor=#f8cecc;strokeColor=#b85450;" vertex="1" parent="1">
          <mxGeometry x="1120" y="1240" width="40" height="40" as="geometry"/>
        </mxCell>
        <mxCell id="3THO4AyM1_TK7ZMoMyT6-223" value="14" style="rounded=0;whiteSpace=wrap;html=1;fillColor=#f8cecc;strokeColor=#b85450;" vertex="1" parent="1">
          <mxGeometry x="1160" y="1240" width="40" height="40" as="geometry"/>
        </mxCell>
        <mxCell id="3THO4AyM1_TK7ZMoMyT6-224" value="0" style="rounded=0;whiteSpace=wrap;html=1;fillColor=#ffe6cc;strokeColor=#d79b00;" vertex="1" parent="1">
          <mxGeometry x="600" y="1000" width="40" height="40" as="geometry"/>
        </mxCell>
        <mxCell id="3THO4AyM1_TK7ZMoMyT6-225" value="1" style="rounded=0;whiteSpace=wrap;html=1;fillColor=#ffe6cc;strokeColor=#d79b00;" vertex="1" parent="1">
          <mxGeometry x="640" y="1000" width="40" height="40" as="geometry"/>
        </mxCell>
        <mxCell id="3THO4AyM1_TK7ZMoMyT6-226" value="2" style="rounded=0;whiteSpace=wrap;html=1;fillColor=#ffe6cc;strokeColor=#d79b00;" vertex="1" parent="1">
          <mxGeometry x="680" y="1000" width="40" height="40" as="geometry"/>
        </mxCell>
        <mxCell id="3THO4AyM1_TK7ZMoMyT6-227" value="3" style="rounded=0;whiteSpace=wrap;html=1;fillColor=#ffe6cc;strokeColor=#d79b00;" vertex="1" parent="1">
          <mxGeometry x="720" y="1000" width="40" height="40" as="geometry"/>
        </mxCell>
        <mxCell id="3THO4AyM1_TK7ZMoMyT6-228" value="4" style="rounded=0;whiteSpace=wrap;html=1;fillColor=#ffe6cc;strokeColor=#d79b00;" vertex="1" parent="1">
          <mxGeometry x="760" y="1000" width="40" height="40" as="geometry"/>
        </mxCell>
        <mxCell id="3THO4AyM1_TK7ZMoMyT6-229" value="5" style="rounded=0;whiteSpace=wrap;html=1;fillColor=#ffe6cc;strokeColor=#d79b00;" vertex="1" parent="1">
          <mxGeometry x="800" y="1000" width="40" height="40" as="geometry"/>
        </mxCell>
        <mxCell id="3THO4AyM1_TK7ZMoMyT6-230" value="6" style="rounded=0;whiteSpace=wrap;html=1;fillColor=#ffe6cc;strokeColor=#d79b00;" vertex="1" parent="1">
          <mxGeometry x="840" y="1000" width="40" height="40" as="geometry"/>
        </mxCell>
        <mxCell id="3THO4AyM1_TK7ZMoMyT6-231" value="7" style="rounded=0;whiteSpace=wrap;html=1;fillColor=#ffe6cc;strokeColor=#d79b00;" vertex="1" parent="1">
          <mxGeometry x="880" y="1000" width="40" height="40" as="geometry"/>
        </mxCell>
        <mxCell id="3THO4AyM1_TK7ZMoMyT6-232" value="8" style="rounded=0;whiteSpace=wrap;html=1;fillColor=#ffe6cc;strokeColor=#d79b00;" vertex="1" parent="1">
          <mxGeometry x="920" y="1000" width="40" height="40" as="geometry"/>
        </mxCell>
        <mxCell id="3THO4AyM1_TK7ZMoMyT6-233" value="9" style="rounded=0;whiteSpace=wrap;html=1;fillColor=#ffe6cc;strokeColor=#d79b00;" vertex="1" parent="1">
          <mxGeometry x="960" y="1000" width="40" height="40" as="geometry"/>
        </mxCell>
        <mxCell id="3THO4AyM1_TK7ZMoMyT6-234" value="0" style="rounded=0;whiteSpace=wrap;html=1;fillColor=#ffe6cc;strokeColor=#d79b00;" vertex="1" parent="1">
          <mxGeometry x="600" y="1120" width="40" height="40" as="geometry"/>
        </mxCell>
        <mxCell id="3THO4AyM1_TK7ZMoMyT6-235" value="1" style="rounded=0;whiteSpace=wrap;html=1;fillColor=#ffe6cc;strokeColor=#d79b00;" vertex="1" parent="1">
          <mxGeometry x="640" y="1120" width="40" height="40" as="geometry"/>
        </mxCell>
        <mxCell id="3THO4AyM1_TK7ZMoMyT6-236" value="2" style="rounded=0;whiteSpace=wrap;html=1;fillColor=#ffe6cc;strokeColor=#d79b00;" vertex="1" parent="1">
          <mxGeometry x="680" y="1120" width="40" height="40" as="geometry"/>
        </mxCell>
        <mxCell id="3THO4AyM1_TK7ZMoMyT6-237" value="3" style="rounded=0;whiteSpace=wrap;html=1;fillColor=#ffe6cc;strokeColor=#d79b00;" vertex="1" parent="1">
          <mxGeometry x="720" y="1120" width="40" height="40" as="geometry"/>
        </mxCell>
        <mxCell id="3THO4AyM1_TK7ZMoMyT6-238" value="4" style="rounded=0;whiteSpace=wrap;html=1;fillColor=#ffe6cc;strokeColor=#d79b00;" vertex="1" parent="1">
          <mxGeometry x="760" y="1120" width="40" height="40" as="geometry"/>
        </mxCell>
        <mxCell id="3THO4AyM1_TK7ZMoMyT6-239" value="5" style="rounded=0;whiteSpace=wrap;html=1;fillColor=#ffe6cc;strokeColor=#d79b00;" vertex="1" parent="1">
          <mxGeometry x="800" y="1120" width="40" height="40" as="geometry"/>
        </mxCell>
        <mxCell id="3THO4AyM1_TK7ZMoMyT6-240" value="6" style="rounded=0;whiteSpace=wrap;html=1;fillColor=#ffe6cc;strokeColor=#d79b00;" vertex="1" parent="1">
          <mxGeometry x="840" y="1120" width="40" height="40" as="geometry"/>
        </mxCell>
        <mxCell id="3THO4AyM1_TK7ZMoMyT6-241" value="7" style="rounded=0;whiteSpace=wrap;html=1;fillColor=#ffe6cc;strokeColor=#d79b00;" vertex="1" parent="1">
          <mxGeometry x="880" y="1120" width="40" height="40" as="geometry"/>
        </mxCell>
        <mxCell id="3THO4AyM1_TK7ZMoMyT6-242" value="8" style="rounded=0;whiteSpace=wrap;html=1;fillColor=#ffe6cc;strokeColor=#d79b00;" vertex="1" parent="1">
          <mxGeometry x="920" y="1120" width="40" height="40" as="geometry"/>
        </mxCell>
        <mxCell id="3THO4AyM1_TK7ZMoMyT6-243" value="9" style="rounded=0;whiteSpace=wrap;html=1;fillColor=#ffe6cc;strokeColor=#d79b00;" vertex="1" parent="1">
          <mxGeometry x="960" y="1120" width="40" height="40" as="geometry"/>
        </mxCell>
        <mxCell id="3THO4AyM1_TK7ZMoMyT6-244" value="0" style="rounded=0;whiteSpace=wrap;html=1;fillColor=#dae8fc;strokeColor=#6c8ebf;" vertex="1" parent="1">
          <mxGeometry x="1000" y="1120" width="40" height="40" as="geometry"/>
        </mxCell>
        <mxCell id="3THO4AyM1_TK7ZMoMyT6-245" value="0" style="rounded=0;whiteSpace=wrap;html=1;fillColor=#dae8fc;strokeColor=#6c8ebf;" vertex="1" parent="1">
          <mxGeometry x="1040" y="1120" width="40" height="40" as="geometry"/>
        </mxCell>
        <mxCell id="3THO4AyM1_TK7ZMoMyT6-246" value="0" style="rounded=0;whiteSpace=wrap;html=1;fillColor=#dae8fc;strokeColor=#6c8ebf;" vertex="1" parent="1">
          <mxGeometry x="1080" y="1120" width="40" height="40" as="geometry"/>
        </mxCell>
        <mxCell id="3THO4AyM1_TK7ZMoMyT6-247" value="0" style="rounded=0;whiteSpace=wrap;html=1;fillColor=#dae8fc;strokeColor=#6c8ebf;" vertex="1" parent="1">
          <mxGeometry x="1120" y="1120" width="40" height="40" as="geometry"/>
        </mxCell>
        <mxCell id="3THO4AyM1_TK7ZMoMyT6-248" value="0" style="rounded=0;whiteSpace=wrap;html=1;fillColor=#dae8fc;strokeColor=#6c8ebf;" vertex="1" parent="1">
          <mxGeometry x="1160" y="1120" width="40" height="40" as="geometry"/>
        </mxCell>
        <mxCell id="3THO4AyM1_TK7ZMoMyT6-249" value="" style="endArrow=classic;html=1;entryX=1;entryY=0;entryDx=0;entryDy=0;exitX=0;exitY=1;exitDx=0;exitDy=0;" edge="1" parent="1" source="3THO4AyM1_TK7ZMoMyT6-229" target="3THO4AyM1_TK7ZMoMyT6-238">
          <mxGeometry width="50" height="50" relative="1" as="geometry">
            <mxPoint x="600" y="1190" as="sourcePoint"/>
            <mxPoint x="650" y="1140" as="targetPoint"/>
          </mxGeometry>
        </mxCell>
        <mxCell id="3THO4AyM1_TK7ZMoMyT6-250" value="扩容" style="text;html=1;strokeColor=none;fillColor=none;align=center;verticalAlign=middle;whiteSpace=wrap;rounded=0;" vertex="1" parent="1">
          <mxGeometry x="810" y="1070" width="60" height="20" as="geometry"/>
        </mxCell>
        <mxCell id="3THO4AyM1_TK7ZMoMyT6-251" value="" style="endArrow=classic;html=1;entryX=0;entryY=0;entryDx=0;entryDy=0;exitX=0;exitY=1;exitDx=0;exitDy=0;" edge="1" parent="1" source="3THO4AyM1_TK7ZMoMyT6-239" target="3THO4AyM1_TK7ZMoMyT6-214">
          <mxGeometry width="50" height="50" relative="1" as="geometry">
            <mxPoint x="810" y="1050" as="sourcePoint"/>
            <mxPoint x="810" y="1130" as="targetPoint"/>
          </mxGeometry>
        </mxCell>
        <mxCell id="3THO4AyM1_TK7ZMoMyT6-252" value="addAll( tar )" style="text;html=1;strokeColor=none;fillColor=none;align=center;verticalAlign=middle;whiteSpace=wrap;rounded=0;" vertex="1" parent="1">
          <mxGeometry x="830" y="1190" width="80" height="20" as="geometry"/>
        </mxCell>
        <mxCell id="3THO4AyM1_TK7ZMoMyT6-253" value="0" style="rounded=0;whiteSpace=wrap;html=1;fillColor=#dae8fc;strokeColor=#6c8ebf;" vertex="1" parent="1">
          <mxGeometry x="1200" y="1120" width="40" height="40" as="geometry"/>
        </mxCell>
        <mxCell id="3THO4AyM1_TK7ZMoMyT6-260" value="15" style="rounded=0;whiteSpace=wrap;html=1;fillColor=#f8cecc;strokeColor=#b85450;" vertex="1" parent="1">
          <mxGeometry x="1200" y="1240" width="40" height="40" as="geometry"/>
        </mxCell>
        <mxCell id="3THO4AyM1_TK7ZMoMyT6-267" value="10" style="rounded=0;whiteSpace=wrap;html=1;fillColor=#ffe6cc;strokeColor=#d79b00;" vertex="1" parent="1">
          <mxGeometry x="1120" y="1000" width="40" height="40" as="geometry"/>
        </mxCell>
        <mxCell id="3THO4AyM1_TK7ZMoMyT6-268" value="11" style="rounded=0;whiteSpace=wrap;html=1;fillColor=#ffe6cc;strokeColor=#d79b00;" vertex="1" parent="1">
          <mxGeometry x="1160" y="1000" width="40" height="40" as="geometry"/>
        </mxCell>
        <mxCell id="3THO4AyM1_TK7ZMoMyT6-269" value="12" style="rounded=0;whiteSpace=wrap;html=1;fillColor=#ffe6cc;strokeColor=#d79b00;" vertex="1" parent="1">
          <mxGeometry x="1200" y="1000" width="40" height="40" as="geometry"/>
        </mxCell>
        <mxCell id="3THO4AyM1_TK7ZMoMyT6-270" value="13" style="rounded=0;whiteSpace=wrap;html=1;fillColor=#ffe6cc;strokeColor=#d79b00;" vertex="1" parent="1">
          <mxGeometry x="1240" y="1000" width="40" height="40" as="geometry"/>
        </mxCell>
        <mxCell id="3THO4AyM1_TK7ZMoMyT6-271" value="14" style="rounded=0;whiteSpace=wrap;html=1;fillColor=#ffe6cc;strokeColor=#d79b00;" vertex="1" parent="1">
          <mxGeometry x="1280" y="1000" width="40" height="40" as="geometry"/>
        </mxCell>
        <mxCell id="3THO4AyM1_TK7ZMoMyT6-272" value="15" style="rounded=0;whiteSpace=wrap;html=1;fillColor=#ffe6cc;strokeColor=#d79b00;" vertex="1" parent="1">
          <mxGeometry x="1320" y="1000" width="40" height="40" as="geometry"/>
        </mxCell>
        <mxCell id="3THO4AyM1_TK7ZMoMyT6-273" value="raw" style="text;html=1;align=center;verticalAlign=middle;resizable=0;points=[];autosize=1;" vertex="1" parent="1">
          <mxGeometry x="785" y="970" width="30" height="20" as="geometry"/>
        </mxCell>
        <mxCell id="3THO4AyM1_TK7ZMoMyT6-274" value="tar" style="text;html=1;align=center;verticalAlign=middle;resizable=0;points=[];autosize=1;" vertex="1" parent="1">
          <mxGeometry x="1240" y="960" width="30" height="20" as="geometry"/>
        </mxCell>
        <mxCell id="3THO4AyM1_TK7ZMoMyT6-278" value="" style="rounded=0;whiteSpace=wrap;html=1;fillColor=none;strokeColor=#FF0000;" vertex="1" parent="1">
          <mxGeometry x="1105" y="990" width="310" height="60" as="geometry"/>
        </mxCell>
        <mxCell id="3THO4AyM1_TK7ZMoMyT6-279" value="" style="rounded=0;whiteSpace=wrap;html=1;fillColor=none;strokeColor=#FF0000;" vertex="1" parent="1">
          <mxGeometry x="990" y="1230" width="300" height="60" as="geometry"/>
        </mxCell>
        <mxCell id="3THO4AyM1_TK7ZMoMyT6-280" value="" style="curved=1;endArrow=classic;html=1;entryX=0.5;entryY=0;entryDx=0;entryDy=0;exitX=0.5;exitY=1;exitDx=0;exitDy=0;" edge="1" parent="1" source="3THO4AyM1_TK7ZMoMyT6-278" target="3THO4AyM1_TK7ZMoMyT6-279">
          <mxGeometry width="50" height="50" relative="1" as="geometry">
            <mxPoint x="1315" y="1050" as="sourcePoint"/>
            <mxPoint x="495" y="1450" as="targetPoint"/>
            <Array as="points">
              <mxPoint x="1130" y="1080"/>
              <mxPoint x="1275" y="1210"/>
            </Array>
          </mxGeometry>
        </mxCell>
        <mxCell id="3THO4AyM1_TK7ZMoMyT6-281" value="" style="shape=curlyBracket;whiteSpace=wrap;html=1;rounded=1;strokeColor=#FF0000;fillColor=none;size=1;rotation=90;" vertex="1" parent="1">
          <mxGeometry x="1130" y="960" width="20" height="280" as="geometry"/>
        </mxCell>
        <mxCell id="3THO4AyM1_TK7ZMoMyT6-285" value="" style="endArrow=none;dashed=1;html=1;exitX=0;exitY=0;exitDx=0;exitDy=0;entryX=0.976;entryY=0.994;entryDx=0;entryDy=0;entryPerimeter=0;" edge="1" parent="1" source="3THO4AyM1_TK7ZMoMyT6-244" target="3THO4AyM1_TK7ZMoMyT6-281">
          <mxGeometry width="50" height="50" relative="1" as="geometry">
            <mxPoint x="1060" y="920" as="sourcePoint"/>
            <mxPoint x="1110" y="870" as="targetPoint"/>
          </mxGeometry>
        </mxCell>
        <mxCell id="3THO4AyM1_TK7ZMoMyT6-288" value="" style="endArrow=none;dashed=1;html=1;entryX=1;entryY=0;entryDx=0;entryDy=0;" edge="1" parent="1" target="3THO4AyM1_TK7ZMoMyT6-293">
          <mxGeometry width="50" height="50" relative="1" as="geometry">
            <mxPoint x="1280" y="1110" as="sourcePoint"/>
            <mxPoint x="1011.1999999999998" y="1119.52" as="targetPoint"/>
          </mxGeometry>
        </mxCell>
        <mxCell id="3THO4AyM1_TK7ZMoMyT6-291" value="扩容：7" style="rounded=0;whiteSpace=wrap;html=1;strokeColor=#000033;fillColor=none;" vertex="1" parent="1">
          <mxGeometry x="1115" y="1069" width="50" height="21" as="geometry"/>
        </mxCell>
        <mxCell id="3THO4AyM1_TK7ZMoMyT6-293" value="0" style="rounded=0;whiteSpace=wrap;html=1;fillColor=#dae8fc;strokeColor=#6c8ebf;" vertex="1" parent="1">
          <mxGeometry x="1240" y="1120" width="40" height="40" as="geometry"/>
        </mxCell>
        <mxCell id="3THO4AyM1_TK7ZMoMyT6-298" value="16" style="rounded=0;whiteSpace=wrap;html=1;fillColor=#ffe6cc;strokeColor=#d79b00;" vertex="1" parent="1">
          <mxGeometry x="1360" y="1000" width="40" height="40" as="geometry"/>
        </mxCell>
        <mxCell id="3THO4AyM1_TK7ZMoMyT6-299" value="16" style="rounded=0;whiteSpace=wrap;html=1;fillColor=#f8cecc;strokeColor=#b85450;" vertex="1" parent="1">
          <mxGeometry x="1240" y="1240" width="40" height="40" as="geometry"/>
        </mxCell>
        <mxCell id="3THO4AyM1_TK7ZMoMyT6-300" value="" style="endArrow=none;dashed=1;html=1;" edge="1" parent="1">
          <mxGeometry width="50" height="50" relative="1" as="geometry">
            <mxPoint x="560" y="1600" as="sourcePoint"/>
            <mxPoint x="560" as="targetPoint"/>
          </mxGeometry>
        </mxCell>
        <mxCell id="3THO4AyM1_TK7ZMoMyT6-301" value="" style="endArrow=none;dashed=1;html=1;" edge="1" parent="1">
          <mxGeometry width="50" height="50" relative="1" as="geometry">
            <mxPoint x="1480" y="1590" as="sourcePoint"/>
            <mxPoint x="1480" y="-10" as="targetPoint"/>
          </mxGeometry>
        </mxCell>
        <mxCell id="3THO4AyM1_TK7ZMoMyT6-302" value="0" style="rounded=0;whiteSpace=wrap;html=1;fillColor=#ffe6cc;strokeColor=#d79b00;" vertex="1" parent="1">
          <mxGeometry x="1720" y="520" width="40" height="40" as="geometry"/>
        </mxCell>
        <mxCell id="3THO4AyM1_TK7ZMoMyT6-303" value="1" style="rounded=0;whiteSpace=wrap;html=1;fillColor=#ffe6cc;strokeColor=#d79b00;" vertex="1" parent="1">
          <mxGeometry x="1760" y="520" width="40" height="40" as="geometry"/>
        </mxCell>
        <mxCell id="3THO4AyM1_TK7ZMoMyT6-304" value="2" style="rounded=0;whiteSpace=wrap;html=1;fillColor=#ffe6cc;strokeColor=#d79b00;" vertex="1" parent="1">
          <mxGeometry x="1800" y="520" width="40" height="40" as="geometry"/>
        </mxCell>
        <mxCell id="3THO4AyM1_TK7ZMoMyT6-305" value="3" style="rounded=0;whiteSpace=wrap;html=1;fillColor=#ffe6cc;strokeColor=#d79b00;" vertex="1" parent="1">
          <mxGeometry x="1840" y="520" width="40" height="40" as="geometry"/>
        </mxCell>
        <mxCell id="3THO4AyM1_TK7ZMoMyT6-306" value="4" style="rounded=0;whiteSpace=wrap;html=1;fillColor=#ffe6cc;strokeColor=#d79b00;" vertex="1" parent="1">
          <mxGeometry x="1880" y="520" width="40" height="40" as="geometry"/>
        </mxCell>
        <mxCell id="3THO4AyM1_TK7ZMoMyT6-307" value="5" style="rounded=0;whiteSpace=wrap;html=1;fillColor=#ffe6cc;strokeColor=#d79b00;" vertex="1" parent="1">
          <mxGeometry x="1920" y="520" width="40" height="40" as="geometry"/>
        </mxCell>
        <mxCell id="3THO4AyM1_TK7ZMoMyT6-308" value="6" style="rounded=0;whiteSpace=wrap;html=1;fillColor=#e1d5e7;strokeColor=#9673a6;" vertex="1" parent="1">
          <mxGeometry x="1960" y="520" width="40" height="40" as="geometry"/>
        </mxCell>
        <mxCell id="3THO4AyM1_TK7ZMoMyT6-309" value="7" style="rounded=0;whiteSpace=wrap;html=1;fillColor=#e1d5e7;strokeColor=#9673a6;" vertex="1" parent="1">
          <mxGeometry x="2000" y="520" width="40" height="40" as="geometry"/>
        </mxCell>
        <mxCell id="3THO4AyM1_TK7ZMoMyT6-310" value="8" style="rounded=0;whiteSpace=wrap;html=1;fillColor=#e1d5e7;strokeColor=#9673a6;" vertex="1" parent="1">
          <mxGeometry x="2040" y="520" width="40" height="40" as="geometry"/>
        </mxCell>
        <mxCell id="3THO4AyM1_TK7ZMoMyT6-311" value="9" style="rounded=0;whiteSpace=wrap;html=1;fillColor=#e1d5e7;strokeColor=#9673a6;" vertex="1" parent="1">
          <mxGeometry x="2080" y="520" width="40" height="40" as="geometry"/>
        </mxCell>
        <mxCell id="3THO4AyM1_TK7ZMoMyT6-312" value="10" style="rounded=0;whiteSpace=wrap;html=1;fillColor=#e1d5e7;strokeColor=#9673a6;" vertex="1" parent="1">
          <mxGeometry x="2120" y="520" width="40" height="40" as="geometry"/>
        </mxCell>
        <mxCell id="3THO4AyM1_TK7ZMoMyT6-313" value="0" style="rounded=0;whiteSpace=wrap;html=1;fillColor=#dae8fc;strokeColor=#6c8ebf;" vertex="1" parent="1">
          <mxGeometry x="2160" y="520" width="40" height="40" as="geometry"/>
        </mxCell>
        <mxCell id="3THO4AyM1_TK7ZMoMyT6-314" value="0" style="rounded=0;whiteSpace=wrap;html=1;fillColor=#dae8fc;strokeColor=#6c8ebf;" vertex="1" parent="1">
          <mxGeometry x="2200" y="520" width="40" height="40" as="geometry"/>
        </mxCell>
        <mxCell id="3THO4AyM1_TK7ZMoMyT6-315" value="0" style="rounded=0;whiteSpace=wrap;html=1;fillColor=#dae8fc;strokeColor=#6c8ebf;" vertex="1" parent="1">
          <mxGeometry x="2240" y="520" width="40" height="40" as="geometry"/>
        </mxCell>
        <mxCell id="3THO4AyM1_TK7ZMoMyT6-316" value="0" style="rounded=0;whiteSpace=wrap;html=1;fillColor=#dae8fc;strokeColor=#6c8ebf;" vertex="1" parent="1">
          <mxGeometry x="2280" y="520" width="40" height="40" as="geometry"/>
        </mxCell>
        <mxCell id="3THO4AyM1_TK7ZMoMyT6-337" value="3" style="rounded=0;whiteSpace=wrap;html=1;fillColor=#e1d5e7;strokeColor=#9673a6;" vertex="1" parent="1">
          <mxGeometry x="2340" y="440" width="40" height="40" as="geometry"/>
        </mxCell>
        <mxCell id="3THO4AyM1_TK7ZMoMyT6-338" value="4" style="rounded=0;whiteSpace=wrap;html=1;fillColor=#e1d5e7;strokeColor=#9673a6;" vertex="1" parent="1">
          <mxGeometry x="2380" y="440" width="40" height="40" as="geometry"/>
        </mxCell>
        <mxCell id="3THO4AyM1_TK7ZMoMyT6-339" value="5" style="rounded=0;whiteSpace=wrap;html=1;fillColor=#e1d5e7;strokeColor=#9673a6;" vertex="1" parent="1">
          <mxGeometry x="2420" y="440" width="40" height="40" as="geometry"/>
        </mxCell>
        <mxCell id="3THO4AyM1_TK7ZMoMyT6-340" value="&lt;font style=&quot;font-size: 18px&quot;&gt;tar&lt;/font&gt;" style="text;html=1;align=center;verticalAlign=middle;resizable=0;points=[];autosize=1;" vertex="1" parent="1">
          <mxGeometry x="2380" y="410" width="40" height="20" as="geometry"/>
        </mxCell>
        <mxCell id="3THO4AyM1_TK7ZMoMyT6-341" value="&lt;font style=&quot;font-size: 18px&quot;&gt;src&lt;/font&gt;" style="text;html=1;align=center;verticalAlign=middle;resizable=0;points=[];autosize=1;" vertex="1" parent="1">
          <mxGeometry x="1974" y="490" width="40" height="20" as="geometry"/>
        </mxCell>
        <mxCell id="3THO4AyM1_TK7ZMoMyT6-342" value="0" style="rounded=0;whiteSpace=wrap;html=1;fillColor=#ffe6cc;strokeColor=#d79b00;" vertex="1" parent="1">
          <mxGeometry x="1720" y="640" width="40" height="40" as="geometry"/>
        </mxCell>
        <mxCell id="3THO4AyM1_TK7ZMoMyT6-343" value="1" style="rounded=0;whiteSpace=wrap;html=1;fillColor=#ffe6cc;strokeColor=#d79b00;" vertex="1" parent="1">
          <mxGeometry x="1760" y="640" width="40" height="40" as="geometry"/>
        </mxCell>
        <mxCell id="3THO4AyM1_TK7ZMoMyT6-344" value="2" style="rounded=0;whiteSpace=wrap;html=1;fillColor=#ffe6cc;strokeColor=#d79b00;" vertex="1" parent="1">
          <mxGeometry x="1800" y="640" width="40" height="40" as="geometry"/>
        </mxCell>
        <mxCell id="3THO4AyM1_TK7ZMoMyT6-345" value="6" style="rounded=0;whiteSpace=wrap;html=1;fillColor=#e1d5e7;strokeColor=#9673a6;" vertex="1" parent="1">
          <mxGeometry x="1840" y="640" width="40" height="40" as="geometry"/>
        </mxCell>
        <mxCell id="3THO4AyM1_TK7ZMoMyT6-346" value="7" style="rounded=0;whiteSpace=wrap;html=1;fillColor=#e1d5e7;strokeColor=#9673a6;" vertex="1" parent="1">
          <mxGeometry x="1880" y="640" width="40" height="40" as="geometry"/>
        </mxCell>
        <mxCell id="3THO4AyM1_TK7ZMoMyT6-347" value="8" style="rounded=0;whiteSpace=wrap;html=1;fillColor=#e1d5e7;strokeColor=#9673a6;" vertex="1" parent="1">
          <mxGeometry x="1920" y="640" width="40" height="40" as="geometry"/>
        </mxCell>
        <mxCell id="3THO4AyM1_TK7ZMoMyT6-348" value="9" style="rounded=0;whiteSpace=wrap;html=1;fillColor=#e1d5e7;strokeColor=#9673a6;" vertex="1" parent="1">
          <mxGeometry x="1960" y="640" width="40" height="40" as="geometry"/>
        </mxCell>
        <mxCell id="3THO4AyM1_TK7ZMoMyT6-349" value="10" style="rounded=0;whiteSpace=wrap;html=1;fillColor=#e1d5e7;strokeColor=#9673a6;" vertex="1" parent="1">
          <mxGeometry x="2000" y="640" width="40" height="40" as="geometry"/>
        </mxCell>
        <mxCell id="3THO4AyM1_TK7ZMoMyT6-350" value="8" style="rounded=0;whiteSpace=wrap;html=1;fillColor=#ffe6cc;strokeColor=#d79b00;" vertex="1" parent="1">
          <mxGeometry x="2040" y="640" width="40" height="40" as="geometry"/>
        </mxCell>
        <mxCell id="3THO4AyM1_TK7ZMoMyT6-351" value="9" style="rounded=0;whiteSpace=wrap;html=1;fillColor=#ffe6cc;strokeColor=#d79b00;" vertex="1" parent="1">
          <mxGeometry x="2080" y="640" width="40" height="40" as="geometry"/>
        </mxCell>
        <mxCell id="3THO4AyM1_TK7ZMoMyT6-352" value="10" style="rounded=0;whiteSpace=wrap;html=1;fillColor=#ffe6cc;strokeColor=#d79b00;" vertex="1" parent="1">
          <mxGeometry x="2120" y="640" width="40" height="40" as="geometry"/>
        </mxCell>
        <mxCell id="3THO4AyM1_TK7ZMoMyT6-353" value="0" style="rounded=0;whiteSpace=wrap;html=1;fillColor=#dae8fc;strokeColor=#6c8ebf;" vertex="1" parent="1">
          <mxGeometry x="2160" y="640" width="40" height="40" as="geometry"/>
        </mxCell>
        <mxCell id="3THO4AyM1_TK7ZMoMyT6-354" value="0" style="rounded=0;whiteSpace=wrap;html=1;fillColor=#dae8fc;strokeColor=#6c8ebf;" vertex="1" parent="1">
          <mxGeometry x="2200" y="640" width="40" height="40" as="geometry"/>
        </mxCell>
        <mxCell id="3THO4AyM1_TK7ZMoMyT6-355" value="0" style="rounded=0;whiteSpace=wrap;html=1;fillColor=#dae8fc;strokeColor=#6c8ebf;" vertex="1" parent="1">
          <mxGeometry x="2240" y="640" width="40" height="40" as="geometry"/>
        </mxCell>
        <mxCell id="3THO4AyM1_TK7ZMoMyT6-356" value="0" style="rounded=0;whiteSpace=wrap;html=1;fillColor=#dae8fc;strokeColor=#6c8ebf;" vertex="1" parent="1">
          <mxGeometry x="2280" y="640" width="40" height="40" as="geometry"/>
        </mxCell>
        <mxCell id="3THO4AyM1_TK7ZMoMyT6-357" value="3" style="rounded=0;whiteSpace=wrap;html=1;fillColor=#e1d5e7;strokeColor=#9673a6;" vertex="1" parent="1">
          <mxGeometry x="2480" y="640" width="40" height="40" as="geometry"/>
        </mxCell>
        <mxCell id="3THO4AyM1_TK7ZMoMyT6-358" value="4" style="rounded=0;whiteSpace=wrap;html=1;fillColor=#e1d5e7;strokeColor=#9673a6;" vertex="1" parent="1">
          <mxGeometry x="2520" y="640" width="40" height="40" as="geometry"/>
        </mxCell>
        <mxCell id="3THO4AyM1_TK7ZMoMyT6-359" value="5" style="rounded=0;whiteSpace=wrap;html=1;fillColor=#e1d5e7;strokeColor=#9673a6;" vertex="1" parent="1">
          <mxGeometry x="2560" y="640" width="40" height="40" as="geometry"/>
        </mxCell>
        <mxCell id="3THO4AyM1_TK7ZMoMyT6-360" value="3" style="rounded=0;whiteSpace=wrap;html=1;fillColor=#ffe6cc;strokeColor=#d79b00;" vertex="1" parent="1">
          <mxGeometry x="2600" y="640" width="40" height="40" as="geometry"/>
        </mxCell>
        <mxCell id="3THO4AyM1_TK7ZMoMyT6-361" value="4" style="rounded=0;whiteSpace=wrap;html=1;fillColor=#ffe6cc;strokeColor=#d79b00;" vertex="1" parent="1">
          <mxGeometry x="2640" y="640" width="40" height="40" as="geometry"/>
        </mxCell>
        <mxCell id="3THO4AyM1_TK7ZMoMyT6-362" value="5" style="rounded=0;whiteSpace=wrap;html=1;fillColor=#ffe6cc;strokeColor=#d79b00;" vertex="1" parent="1">
          <mxGeometry x="2680" y="640" width="40" height="40" as="geometry"/>
        </mxCell>
        <mxCell id="3THO4AyM1_TK7ZMoMyT6-363" value="6" style="rounded=0;whiteSpace=wrap;html=1;fillColor=#ffe6cc;strokeColor=#d79b00;" vertex="1" parent="1">
          <mxGeometry x="2720" y="640" width="40" height="40" as="geometry"/>
        </mxCell>
        <mxCell id="3THO4AyM1_TK7ZMoMyT6-364" value="7" style="rounded=0;whiteSpace=wrap;html=1;fillColor=#ffe6cc;strokeColor=#d79b00;" vertex="1" parent="1">
          <mxGeometry x="2760" y="640" width="40" height="40" as="geometry"/>
        </mxCell>
        <mxCell id="3THO4AyM1_TK7ZMoMyT6-365" value="8" style="rounded=0;whiteSpace=wrap;html=1;fillColor=#ffe6cc;strokeColor=#d79b00;" vertex="1" parent="1">
          <mxGeometry x="2800" y="640" width="40" height="40" as="geometry"/>
        </mxCell>
        <mxCell id="3THO4AyM1_TK7ZMoMyT6-366" value="9" style="rounded=0;whiteSpace=wrap;html=1;fillColor=#ffe6cc;strokeColor=#d79b00;" vertex="1" parent="1">
          <mxGeometry x="2840" y="640" width="40" height="40" as="geometry"/>
        </mxCell>
        <mxCell id="3THO4AyM1_TK7ZMoMyT6-367" value="10" style="rounded=0;whiteSpace=wrap;html=1;fillColor=#ffe6cc;strokeColor=#d79b00;" vertex="1" parent="1">
          <mxGeometry x="2880" y="640" width="40" height="40" as="geometry"/>
        </mxCell>
        <mxCell id="3THO4AyM1_TK7ZMoMyT6-368" value="0" style="rounded=0;whiteSpace=wrap;html=1;fillColor=#dae8fc;strokeColor=#6c8ebf;" vertex="1" parent="1">
          <mxGeometry x="2920" y="640" width="40" height="40" as="geometry"/>
        </mxCell>
        <mxCell id="3THO4AyM1_TK7ZMoMyT6-369" value="0" style="rounded=0;whiteSpace=wrap;html=1;fillColor=#dae8fc;strokeColor=#6c8ebf;" vertex="1" parent="1">
          <mxGeometry x="2960" y="640" width="40" height="40" as="geometry"/>
        </mxCell>
        <mxCell id="3THO4AyM1_TK7ZMoMyT6-370" value="0" style="rounded=0;whiteSpace=wrap;html=1;fillColor=#dae8fc;strokeColor=#6c8ebf;" vertex="1" parent="1">
          <mxGeometry x="3000" y="640" width="40" height="40" as="geometry"/>
        </mxCell>
        <mxCell id="3THO4AyM1_TK7ZMoMyT6-371" value="0" style="rounded=0;whiteSpace=wrap;html=1;fillColor=#dae8fc;strokeColor=#6c8ebf;" vertex="1" parent="1">
          <mxGeometry x="3040" y="640" width="40" height="40" as="geometry"/>
        </mxCell>
        <mxCell id="3THO4AyM1_TK7ZMoMyT6-372" value="0" style="rounded=0;whiteSpace=wrap;html=1;fillColor=#ffe6cc;strokeColor=#d79b00;" vertex="1" parent="1">
          <mxGeometry x="2480" y="520" width="40" height="40" as="geometry"/>
        </mxCell>
        <mxCell id="3THO4AyM1_TK7ZMoMyT6-373" value="1" style="rounded=0;whiteSpace=wrap;html=1;fillColor=#ffe6cc;strokeColor=#d79b00;" vertex="1" parent="1">
          <mxGeometry x="2520" y="520" width="40" height="40" as="geometry"/>
        </mxCell>
        <mxCell id="3THO4AyM1_TK7ZMoMyT6-374" value="2" style="rounded=0;whiteSpace=wrap;html=1;fillColor=#ffe6cc;strokeColor=#d79b00;" vertex="1" parent="1">
          <mxGeometry x="2560" y="520" width="40" height="40" as="geometry"/>
        </mxCell>
        <mxCell id="3THO4AyM1_TK7ZMoMyT6-375" value="3" style="rounded=0;whiteSpace=wrap;html=1;fillColor=#e1d5e7;strokeColor=#9673a6;" vertex="1" parent="1">
          <mxGeometry x="2600" y="520" width="40" height="40" as="geometry"/>
        </mxCell>
        <mxCell id="3THO4AyM1_TK7ZMoMyT6-376" value="4" style="rounded=0;whiteSpace=wrap;html=1;fillColor=#e1d5e7;strokeColor=#9673a6;" vertex="1" parent="1">
          <mxGeometry x="2640" y="520" width="40" height="40" as="geometry"/>
        </mxCell>
        <mxCell id="3THO4AyM1_TK7ZMoMyT6-377" value="5" style="rounded=0;whiteSpace=wrap;html=1;fillColor=#e1d5e7;strokeColor=#9673a6;" vertex="1" parent="1">
          <mxGeometry x="2680" y="520" width="40" height="40" as="geometry"/>
        </mxCell>
        <mxCell id="3THO4AyM1_TK7ZMoMyT6-378" value="6" style="rounded=0;whiteSpace=wrap;html=1;fillColor=#ffe6cc;strokeColor=#d79b00;" vertex="1" parent="1">
          <mxGeometry x="2720" y="520" width="40" height="40" as="geometry"/>
        </mxCell>
        <mxCell id="3THO4AyM1_TK7ZMoMyT6-379" value="7" style="rounded=0;whiteSpace=wrap;html=1;fillColor=#ffe6cc;strokeColor=#d79b00;" vertex="1" parent="1">
          <mxGeometry x="2760" y="520" width="40" height="40" as="geometry"/>
        </mxCell>
        <mxCell id="3THO4AyM1_TK7ZMoMyT6-380" value="8" style="rounded=0;whiteSpace=wrap;html=1;fillColor=#ffe6cc;strokeColor=#d79b00;" vertex="1" parent="1">
          <mxGeometry x="2800" y="520" width="40" height="40" as="geometry"/>
        </mxCell>
        <mxCell id="3THO4AyM1_TK7ZMoMyT6-381" value="9" style="rounded=0;whiteSpace=wrap;html=1;fillColor=#ffe6cc;strokeColor=#d79b00;" vertex="1" parent="1">
          <mxGeometry x="2840" y="520" width="40" height="40" as="geometry"/>
        </mxCell>
        <mxCell id="3THO4AyM1_TK7ZMoMyT6-382" value="10" style="rounded=0;whiteSpace=wrap;html=1;fillColor=#ffe6cc;strokeColor=#d79b00;" vertex="1" parent="1">
          <mxGeometry x="2880" y="520" width="40" height="40" as="geometry"/>
        </mxCell>
        <mxCell id="3THO4AyM1_TK7ZMoMyT6-383" value="0" style="rounded=0;whiteSpace=wrap;html=1;fillColor=#dae8fc;strokeColor=#6c8ebf;" vertex="1" parent="1">
          <mxGeometry x="2920" y="520" width="40" height="40" as="geometry"/>
        </mxCell>
        <mxCell id="3THO4AyM1_TK7ZMoMyT6-384" value="0" style="rounded=0;whiteSpace=wrap;html=1;fillColor=#dae8fc;strokeColor=#6c8ebf;" vertex="1" parent="1">
          <mxGeometry x="2960" y="520" width="40" height="40" as="geometry"/>
        </mxCell>
        <mxCell id="3THO4AyM1_TK7ZMoMyT6-385" value="0" style="rounded=0;whiteSpace=wrap;html=1;fillColor=#dae8fc;strokeColor=#6c8ebf;" vertex="1" parent="1">
          <mxGeometry x="3000" y="520" width="40" height="40" as="geometry"/>
        </mxCell>
        <mxCell id="3THO4AyM1_TK7ZMoMyT6-386" value="0" style="rounded=0;whiteSpace=wrap;html=1;fillColor=#dae8fc;strokeColor=#6c8ebf;" vertex="1" parent="1">
          <mxGeometry x="3040" y="520" width="40" height="40" as="geometry"/>
        </mxCell>
        <mxCell id="3THO4AyM1_TK7ZMoMyT6-387" value="&lt;font style=&quot;font-size: 18px&quot;&gt;src&lt;/font&gt;" style="text;html=1;align=center;verticalAlign=middle;resizable=0;points=[];autosize=1;" vertex="1" parent="1">
          <mxGeometry x="2734" y="490" width="40" height="20" as="geometry"/>
        </mxCell>
        <mxCell id="3THO4AyM1_TK7ZMoMyT6-388" value="" style="endArrow=classic;html=1;exitX=0;exitY=1;exitDx=0;exitDy=0;" edge="1" parent="1" source="3THO4AyM1_TK7ZMoMyT6-309">
          <mxGeometry width="50" height="50" relative="1" as="geometry">
            <mxPoint x="2030" y="730" as="sourcePoint"/>
            <mxPoint x="2000" y="640" as="targetPoint"/>
          </mxGeometry>
        </mxCell>
        <mxCell id="3THO4AyM1_TK7ZMoMyT6-389" value="&lt;font style=&quot;font-size: 16px&quot;&gt;list.removeAll( tar )&lt;/font&gt;" style="text;html=1;align=center;verticalAlign=middle;resizable=0;points=[];autosize=1;" vertex="1" parent="1">
          <mxGeometry x="1999" y="590" width="150" height="20" as="geometry"/>
        </mxCell>
        <mxCell id="3THO4AyM1_TK7ZMoMyT6-391" value="" style="endArrow=classic;html=1;exitX=0;exitY=1;exitDx=0;exitDy=0;entryX=0;entryY=0;entryDx=0;entryDy=0;" edge="1" parent="1" source="3THO4AyM1_TK7ZMoMyT6-379" target="3THO4AyM1_TK7ZMoMyT6-364">
          <mxGeometry width="50" height="50" relative="1" as="geometry">
            <mxPoint x="2370" y="610" as="sourcePoint"/>
            <mxPoint x="2010" y="650" as="targetPoint"/>
          </mxGeometry>
        </mxCell>
        <mxCell id="3THO4AyM1_TK7ZMoMyT6-392" value="&lt;font style=&quot;font-size: 16px&quot;&gt;list.retainAll( tar )&lt;/font&gt;" style="text;html=1;align=center;verticalAlign=middle;resizable=0;points=[];autosize=1;" vertex="1" parent="1">
          <mxGeometry x="2774" y="590" width="140" height="20" as="geometry"/>
        </mxCell>
        <mxCell id="3THO4AyM1_TK7ZMoMyT6-393" value="0" style="rounded=0;whiteSpace=wrap;html=1;fillColor=#ffe6cc;strokeColor=#d79b00;" vertex="1" parent="1">
          <mxGeometry x="1720" y="760" width="40" height="40" as="geometry"/>
        </mxCell>
        <mxCell id="3THO4AyM1_TK7ZMoMyT6-394" value="1" style="rounded=0;whiteSpace=wrap;html=1;fillColor=#ffe6cc;strokeColor=#d79b00;" vertex="1" parent="1">
          <mxGeometry x="1760" y="760" width="40" height="40" as="geometry"/>
        </mxCell>
        <mxCell id="3THO4AyM1_TK7ZMoMyT6-395" value="2" style="rounded=0;whiteSpace=wrap;html=1;fillColor=#ffe6cc;strokeColor=#d79b00;" vertex="1" parent="1">
          <mxGeometry x="1800" y="760" width="40" height="40" as="geometry"/>
        </mxCell>
        <mxCell id="3THO4AyM1_TK7ZMoMyT6-396" value="6" style="rounded=0;whiteSpace=wrap;html=1;fillColor=#ffe6cc;strokeColor=#d79b00;" vertex="1" parent="1">
          <mxGeometry x="1840" y="760" width="40" height="40" as="geometry"/>
        </mxCell>
        <mxCell id="3THO4AyM1_TK7ZMoMyT6-397" value="7" style="rounded=0;whiteSpace=wrap;html=1;fillColor=#ffe6cc;strokeColor=#d79b00;" vertex="1" parent="1">
          <mxGeometry x="1880" y="760" width="40" height="40" as="geometry"/>
        </mxCell>
        <mxCell id="3THO4AyM1_TK7ZMoMyT6-398" value="8" style="rounded=0;whiteSpace=wrap;html=1;fillColor=#ffe6cc;strokeColor=#d79b00;" vertex="1" parent="1">
          <mxGeometry x="1920" y="760" width="40" height="40" as="geometry"/>
        </mxCell>
        <mxCell id="3THO4AyM1_TK7ZMoMyT6-399" value="9" style="rounded=0;whiteSpace=wrap;html=1;fillColor=#ffe6cc;strokeColor=#d79b00;" vertex="1" parent="1">
          <mxGeometry x="1960" y="760" width="40" height="40" as="geometry"/>
        </mxCell>
        <mxCell id="3THO4AyM1_TK7ZMoMyT6-400" value="10" style="rounded=0;whiteSpace=wrap;html=1;fillColor=#ffe6cc;strokeColor=#d79b00;" vertex="1" parent="1">
          <mxGeometry x="2000" y="760" width="40" height="40" as="geometry"/>
        </mxCell>
        <mxCell id="3THO4AyM1_TK7ZMoMyT6-401" value="0" style="rounded=0;whiteSpace=wrap;html=1;fillColor=#dae8fc;strokeColor=#6c8ebf;" vertex="1" parent="1">
          <mxGeometry x="2040" y="760" width="40" height="40" as="geometry"/>
        </mxCell>
        <mxCell id="3THO4AyM1_TK7ZMoMyT6-402" value="0" style="rounded=0;whiteSpace=wrap;html=1;fillColor=#dae8fc;strokeColor=#6c8ebf;" vertex="1" parent="1">
          <mxGeometry x="2080" y="760" width="40" height="40" as="geometry"/>
        </mxCell>
        <mxCell id="3THO4AyM1_TK7ZMoMyT6-403" value="0" style="rounded=0;whiteSpace=wrap;html=1;fillColor=#dae8fc;strokeColor=#6c8ebf;" vertex="1" parent="1">
          <mxGeometry x="2120" y="760" width="40" height="40" as="geometry"/>
        </mxCell>
        <mxCell id="3THO4AyM1_TK7ZMoMyT6-404" value="0" style="rounded=0;whiteSpace=wrap;html=1;fillColor=#dae8fc;strokeColor=#6c8ebf;" vertex="1" parent="1">
          <mxGeometry x="2160" y="760" width="40" height="40" as="geometry"/>
        </mxCell>
        <mxCell id="3THO4AyM1_TK7ZMoMyT6-405" value="0" style="rounded=0;whiteSpace=wrap;html=1;fillColor=#dae8fc;strokeColor=#6c8ebf;" vertex="1" parent="1">
          <mxGeometry x="2200" y="760" width="40" height="40" as="geometry"/>
        </mxCell>
        <mxCell id="3THO4AyM1_TK7ZMoMyT6-406" value="0" style="rounded=0;whiteSpace=wrap;html=1;fillColor=#dae8fc;strokeColor=#6c8ebf;" vertex="1" parent="1">
          <mxGeometry x="2240" y="760" width="40" height="40" as="geometry"/>
        </mxCell>
        <mxCell id="3THO4AyM1_TK7ZMoMyT6-407" value="0" style="rounded=0;whiteSpace=wrap;html=1;fillColor=#dae8fc;strokeColor=#6c8ebf;" vertex="1" parent="1">
          <mxGeometry x="2280" y="760" width="40" height="40" as="geometry"/>
        </mxCell>
        <mxCell id="3THO4AyM1_TK7ZMoMyT6-408" value="" style="endArrow=classic;html=1;exitX=0;exitY=1;exitDx=0;exitDy=0;entryX=0;entryY=0;entryDx=0;entryDy=0;" edge="1" parent="1" source="3THO4AyM1_TK7ZMoMyT6-349" target="3THO4AyM1_TK7ZMoMyT6-400">
          <mxGeometry width="50" height="50" relative="1" as="geometry">
            <mxPoint x="2010" y="570" as="sourcePoint"/>
            <mxPoint x="2010" y="650" as="targetPoint"/>
          </mxGeometry>
        </mxCell>
        <mxCell id="3THO4AyM1_TK7ZMoMyT6-409" value="&lt;pre style=&quot;font-family: &amp;#34;menlo&amp;#34;&quot;&gt;&lt;font color=&quot;#000033&quot; style=&quot;font-size: 15px&quot;&gt;clear to let GC&lt;/font&gt;&lt;/pre&gt;" style="text;html=1;align=center;verticalAlign=middle;resizable=0;points=[];autosize=1;" vertex="1" parent="1">
          <mxGeometry x="2010" y="700" width="150" height="40" as="geometry"/>
        </mxCell>
        <mxCell id="3THO4AyM1_TK7ZMoMyT6-425" value="" style="endArrow=classic;html=1;exitX=0;exitY=1;exitDx=0;exitDy=0;entryX=0;entryY=0;entryDx=0;entryDy=0;" edge="1" parent="1">
          <mxGeometry width="50" height="50" relative="1" as="geometry">
            <mxPoint x="2760" y="680" as="sourcePoint"/>
            <mxPoint x="2760" y="760" as="targetPoint"/>
          </mxGeometry>
        </mxCell>
        <mxCell id="3THO4AyM1_TK7ZMoMyT6-426" value="&lt;pre style=&quot;font-family: &amp;#34;menlo&amp;#34;&quot;&gt;&lt;font color=&quot;#000033&quot; style=&quot;font-size: 15px&quot;&gt;clear to let GC&lt;/font&gt;&lt;/pre&gt;" style="text;html=1;align=center;verticalAlign=middle;resizable=0;points=[];autosize=1;" vertex="1" parent="1">
          <mxGeometry x="2770" y="700" width="150" height="40" as="geometry"/>
        </mxCell>
        <mxCell id="3THO4AyM1_TK7ZMoMyT6-428" value="3" style="rounded=0;whiteSpace=wrap;html=1;fillColor=#e1d5e7;strokeColor=#9673a6;" vertex="1" parent="1">
          <mxGeometry x="2480" y="760" width="40" height="40" as="geometry"/>
        </mxCell>
        <mxCell id="3THO4AyM1_TK7ZMoMyT6-429" value="4" style="rounded=0;whiteSpace=wrap;html=1;fillColor=#e1d5e7;strokeColor=#9673a6;" vertex="1" parent="1">
          <mxGeometry x="2520" y="760" width="40" height="40" as="geometry"/>
        </mxCell>
        <mxCell id="3THO4AyM1_TK7ZMoMyT6-430" value="5" style="rounded=0;whiteSpace=wrap;html=1;fillColor=#e1d5e7;strokeColor=#9673a6;" vertex="1" parent="1">
          <mxGeometry x="2560" y="760" width="40" height="40" as="geometry"/>
        </mxCell>
        <mxCell id="3THO4AyM1_TK7ZMoMyT6-431" value="0" style="rounded=0;whiteSpace=wrap;html=1;fillColor=#dae8fc;strokeColor=#6c8ebf;" vertex="1" parent="1">
          <mxGeometry x="2600" y="760" width="40" height="40" as="geometry"/>
        </mxCell>
        <mxCell id="3THO4AyM1_TK7ZMoMyT6-432" value="0" style="rounded=0;whiteSpace=wrap;html=1;fillColor=#dae8fc;strokeColor=#6c8ebf;" vertex="1" parent="1">
          <mxGeometry x="2640" y="760" width="40" height="40" as="geometry"/>
        </mxCell>
        <mxCell id="3THO4AyM1_TK7ZMoMyT6-433" value="0" style="rounded=0;whiteSpace=wrap;html=1;fillColor=#dae8fc;strokeColor=#6c8ebf;" vertex="1" parent="1">
          <mxGeometry x="2680" y="760" width="40" height="40" as="geometry"/>
        </mxCell>
        <mxCell id="3THO4AyM1_TK7ZMoMyT6-434" value="0" style="rounded=0;whiteSpace=wrap;html=1;fillColor=#dae8fc;strokeColor=#6c8ebf;" vertex="1" parent="1">
          <mxGeometry x="2720" y="760" width="40" height="40" as="geometry"/>
        </mxCell>
        <mxCell id="3THO4AyM1_TK7ZMoMyT6-435" value="0" style="rounded=0;whiteSpace=wrap;html=1;fillColor=#dae8fc;strokeColor=#6c8ebf;" vertex="1" parent="1">
          <mxGeometry x="2760" y="760" width="40" height="40" as="geometry"/>
        </mxCell>
        <mxCell id="3THO4AyM1_TK7ZMoMyT6-436" value="0" style="rounded=0;whiteSpace=wrap;html=1;fillColor=#dae8fc;strokeColor=#6c8ebf;" vertex="1" parent="1">
          <mxGeometry x="2800" y="760" width="40" height="40" as="geometry"/>
        </mxCell>
        <mxCell id="3THO4AyM1_TK7ZMoMyT6-437" value="0" style="rounded=0;whiteSpace=wrap;html=1;fillColor=#dae8fc;strokeColor=#6c8ebf;" vertex="1" parent="1">
          <mxGeometry x="2840" y="760" width="40" height="40" as="geometry"/>
        </mxCell>
        <mxCell id="3THO4AyM1_TK7ZMoMyT6-438" value="0" style="rounded=0;whiteSpace=wrap;html=1;fillColor=#dae8fc;strokeColor=#6c8ebf;" vertex="1" parent="1">
          <mxGeometry x="2880" y="760" width="40" height="40" as="geometry"/>
        </mxCell>
        <mxCell id="3THO4AyM1_TK7ZMoMyT6-439" value="0" style="rounded=0;whiteSpace=wrap;html=1;fillColor=#dae8fc;strokeColor=#6c8ebf;" vertex="1" parent="1">
          <mxGeometry x="2920" y="760" width="40" height="40" as="geometry"/>
        </mxCell>
        <mxCell id="3THO4AyM1_TK7ZMoMyT6-440" value="0" style="rounded=0;whiteSpace=wrap;html=1;fillColor=#dae8fc;strokeColor=#6c8ebf;" vertex="1" parent="1">
          <mxGeometry x="2960" y="760" width="40" height="40" as="geometry"/>
        </mxCell>
        <mxCell id="3THO4AyM1_TK7ZMoMyT6-441" value="0" style="rounded=0;whiteSpace=wrap;html=1;fillColor=#dae8fc;strokeColor=#6c8ebf;" vertex="1" parent="1">
          <mxGeometry x="3000" y="760" width="40" height="40" as="geometry"/>
        </mxCell>
        <mxCell id="3THO4AyM1_TK7ZMoMyT6-442" value="0" style="rounded=0;whiteSpace=wrap;html=1;fillColor=#dae8fc;strokeColor=#6c8ebf;" vertex="1" parent="1">
          <mxGeometry x="3040" y="760" width="40" height="40" as="geometry"/>
        </mxCell>
      </root>
    </mxGraphModel>
  </diagram>
</mxfile>
